<svg xmlns="http://www.w3.org/2000/svg" width="963.444" height="121.589" viewBox="0 0 963.444 121.589" fill="none">
  <path d="M 82.525 41.832 C 82.091 38.902 81.114 36.243 79.595 33.856 C 78.076 31.36 76.177 29.19 73.898 27.345 C 71.619 25.501 69.015 24.09 66.085 23.113 C 63.264 22.028 60.279 21.486 57.132 21.486 C 51.381 21.486 46.498 22.625 42.483 24.904 C 38.468 27.074 35.213 30.058 32.717 33.856 C 30.221 37.546 28.376 41.778 27.183 46.552 C 26.097 51.327 25.555 56.264 25.555 61.364 C 25.555 66.247 26.097 71.022 27.183 75.688 C 28.376 80.246 30.221 84.369 32.717 88.059 C 35.213 91.748 38.468 94.732 42.483 97.011 C 46.498 99.181 51.381 100.266 57.132 100.266 C 64.945 100.266 71.022 97.879 75.363 93.104 C 79.812 88.33 82.525 82.036 83.502 74.223 L 108.243 74.223 C 107.592 81.494 105.91 88.059 103.197 93.918 C 100.484 99.778 96.903 104.77 92.454 108.893 C 88.005 113.017 82.796 116.164 76.828 118.334 C 70.86 120.504 64.294 121.589 57.132 121.589 C 48.234 121.589 40.204 120.07 33.042 117.032 C 25.989 113.885 20.021 109.599 15.138 104.173 C 10.254 98.747 6.511 92.399 3.906 85.129 C 1.302 77.75 0 69.828 0 61.364 C 0 52.683 1.302 44.653 3.906 37.274 C 6.511 29.787 10.254 23.276 15.138 17.742 C 20.021 12.208 25.989 7.867 33.042 4.72 C 40.204 1.573 48.234 0 57.132 0 C 63.535 0 69.557 0.922 75.2 2.767 C 80.951 4.612 86.052 7.325 90.501 10.906 C 95.058 14.378 98.802 18.719 101.732 23.927 C 104.662 29.136 106.506 35.104 107.266 41.832 L 82.525 41.832 Z M 151.248 55.342 L 179.245 55.342 C 185.105 55.342 189.499 54.04 192.429 51.435 C 195.359 48.831 196.824 44.599 196.824 38.739 C 196.824 33.097 195.359 29.027 192.429 26.532 C 189.499 23.927 185.105 22.625 179.245 22.625 L 151.248 22.625 L 151.248 55.342 Z M 125.693 2.767 L 188.36 2.767 C 193.569 2.767 198.235 3.635 202.358 5.371 C 206.59 6.999 210.171 9.278 213.101 12.208 C 216.14 15.138 218.418 18.556 219.938 22.462 C 221.565 26.26 222.379 30.384 222.379 34.833 C 222.379 41.669 220.914 47.583 217.984 52.575 C 215.163 57.566 210.497 61.364 203.986 63.969 L 203.986 64.294 C 207.133 65.162 209.737 66.519 211.799 68.363 C 213.861 70.1 215.543 72.216 216.845 74.711 C 218.147 77.099 219.069 79.757 219.612 82.687 C 220.263 85.617 220.697 88.547 220.914 91.477 C 221.023 93.322 221.131 95.492 221.24 97.988 C 221.348 100.483 221.511 103.033 221.728 105.638 C 222.054 108.242 222.488 110.738 223.03 113.125 C 223.681 115.404 224.604 117.357 225.797 118.985 L 200.242 118.985 C 198.832 115.296 197.964 110.901 197.638 105.801 C 197.312 100.7 196.824 95.817 196.173 91.151 C 195.305 85.074 193.46 80.625 190.639 77.804 C 187.818 74.983 183.206 73.572 176.803 73.572 L 151.248 73.572 L 151.248 118.985 L 125.693 118.985 L 125.693 2.767 Z M 243.162 2.767 L 268.717 2.767 L 268.717 118.985 L 243.162 118.985 L 243.162 2.767 Z M 320.465 74.06 L 350.577 74.06 L 335.928 31.415 L 335.603 31.415 L 320.465 74.06 Z M 322.906 2.767 L 349.112 2.767 L 392.572 118.985 L 366.041 118.985 L 357.251 93.104 L 313.791 93.104 L 304.676 118.985 L 278.958 118.985 L 322.906 2.767 Z M 428.149 97.499 L 450.937 97.499 C 454.626 97.499 458.207 96.902 461.68 95.709 C 465.152 94.515 468.245 92.562 470.958 89.849 C 473.671 87.028 475.841 83.393 477.468 78.943 C 479.096 74.494 479.91 69.069 479.91 62.666 C 479.91 56.807 479.313 51.544 478.12 46.878 C 477.034 42.103 475.19 38.034 472.585 34.67 C 469.981 31.306 466.509 28.756 462.168 27.02 C 457.936 25.175 452.673 24.253 446.379 24.253 L 428.149 24.253 L 428.149 97.499 Z M 402.594 2.767 L 452.727 2.767 C 460.215 2.767 467.16 3.961 473.562 6.348 C 480.073 8.735 485.661 12.316 490.327 17.091 C 495.102 21.866 498.791 27.834 501.396 34.996 C 504.109 42.157 505.465 50.567 505.465 60.225 C 505.465 68.689 504.38 76.502 502.21 83.664 C 500.039 90.826 496.73 97.011 492.281 102.22 C 487.94 107.428 482.46 111.552 475.841 114.59 C 469.33 117.52 461.625 118.985 452.727 118.985 L 402.594 118.985 L 402.594 2.767 Z M 543.75 61.364 C 543.75 66.247 544.293 71.022 545.378 75.688 C 546.572 80.246 548.417 84.369 550.912 88.059 C 553.408 91.748 556.664 94.732 560.679 97.011 C 564.694 99.181 569.577 100.266 575.328 100.266 C 581.079 100.266 585.962 99.181 589.977 97.011 C 593.992 94.732 597.248 91.748 599.743 88.059 C 602.239 84.369 604.03 80.246 605.115 75.688 C 606.309 71.022 606.905 66.247 606.905 61.364 C 606.905 56.264 606.309 51.327 605.115 46.552 C 604.03 41.778 602.239 37.546 599.743 33.856 C 597.248 30.058 593.992 27.074 589.977 24.904 C 585.962 22.625 581.079 21.486 575.328 21.486 C 569.577 21.486 564.694 22.625 560.679 24.904 C 556.664 27.074 553.408 30.058 550.912 33.856 C 548.417 37.546 546.572 41.778 545.378 46.552 C 544.293 51.327 543.75 56.264 543.75 61.364 Z M 518.195 61.364 C 518.195 52.683 519.498 44.653 522.102 37.274 C 524.706 29.787 528.45 23.276 533.333 17.742 C 538.216 12.208 544.184 7.867 551.238 4.72 C 558.4 1.573 566.43 0 575.328 0 C 584.335 0 592.365 1.573 599.418 4.72 C 606.471 7.867 612.44 12.208 617.323 17.742 C 622.206 23.276 625.95 29.787 628.554 37.274 C 631.158 44.653 632.46 52.683 632.46 61.364 C 632.46 69.828 631.158 77.75 628.554 85.129 C 625.95 92.399 622.206 98.747 617.323 104.173 C 612.44 109.599 606.471 113.885 599.418 117.032 C 592.365 120.07 584.335 121.589 575.328 121.589 C 566.43 121.589 558.4 120.07 551.238 117.032 C 544.184 113.885 538.216 109.599 533.333 104.173 C 528.45 98.747 524.706 92.399 522.102 85.129 C 519.498 77.75 518.195 69.828 518.195 61.364 Z M 675.484 55.342 L 703.48 55.342 C 709.34 55.342 713.735 54.04 716.665 51.435 C 719.595 48.831 721.06 44.599 721.06 38.739 C 721.06 33.097 719.595 29.027 716.665 26.532 C 713.735 23.927 709.34 22.625 703.48 22.625 L 675.484 22.625 L 675.484 55.342 Z M 649.929 2.767 L 712.596 2.767 C 717.804 2.767 722.47 3.635 726.594 5.371 C 730.826 6.999 734.407 9.278 737.337 12.208 C 740.375 15.138 742.654 18.556 744.173 22.462 C 745.801 26.26 746.615 30.384 746.615 34.833 C 746.615 41.669 745.15 47.583 742.22 52.575 C 739.398 57.566 734.732 61.364 728.222 63.969 L 728.222 64.294 C 731.368 65.162 733.973 66.519 736.035 68.363 C 738.096 70.1 739.778 72.216 741.08 74.711 C 742.383 77.099 743.305 79.757 743.848 82.687 C 744.499 85.617 744.933 88.547 745.15 91.477 C 745.258 93.322 745.367 95.492 745.475 97.988 C 745.584 100.483 745.746 103.033 745.964 105.638 C 746.289 108.242 746.723 110.738 747.266 113.125 C 747.917 115.404 748.839 117.357 750.033 118.985 L 724.478 118.985 C 723.067 115.296 722.199 110.901 721.873 105.801 C 721.548 100.7 721.06 95.817 720.409 91.151 C 719.54 85.074 717.696 80.625 714.874 77.804 C 712.053 74.983 707.441 73.572 701.039 73.572 L 675.484 73.572 L 675.484 118.985 L 649.929 118.985 L 649.929 2.767 Z M 767.397 2.767 L 854.317 2.767 L 854.317 24.253 L 792.952 24.253 L 792.952 49.157 L 849.271 49.157 L 849.271 69.014 L 792.952 69.014 L 792.952 97.499 L 855.619 97.499 L 855.619 118.985 L 767.397 118.985 L 767.397 2.767 Z M 890.36 80.408 C 890.36 84.315 891.065 87.625 892.476 90.337 C 893.887 93.05 895.731 95.275 898.01 97.011 C 900.398 98.639 903.165 99.887 906.312 100.755 C 909.458 101.514 912.714 101.894 916.078 101.894 C 918.357 101.894 920.798 101.731 923.402 101.406 C 926.007 100.972 928.448 100.212 930.727 99.127 C 933.006 98.042 934.905 96.577 936.424 94.732 C 937.943 92.779 938.703 90.337 938.703 87.408 C 938.703 84.261 937.672 81.711 935.61 79.757 C 933.657 77.804 931.053 76.176 927.797 74.874 C 924.542 73.572 920.852 72.433 916.729 71.456 C 912.605 70.479 908.428 69.394 904.196 68.201 C 899.855 67.115 895.623 65.813 891.499 64.294 C 887.376 62.666 883.686 60.605 880.431 58.109 C 877.176 55.613 874.517 52.521 872.455 48.831 C 870.502 45.033 869.525 40.476 869.525 35.158 C 869.525 29.19 870.773 24.036 873.269 19.695 C 875.873 15.246 879.237 11.557 883.361 8.627 C 887.484 5.697 892.151 3.527 897.359 2.116 C 902.568 0.705 907.777 0 912.985 0 C 919.062 0 924.867 0.705 930.402 2.116 C 936.044 3.418 941.036 5.588 945.377 8.627 C 949.717 11.665 953.135 15.572 955.631 20.346 C 958.235 25.012 959.538 30.709 959.538 37.437 L 934.796 37.437 C 934.579 33.965 933.82 31.089 932.518 28.81 C 931.324 26.532 929.696 24.741 927.635 23.439 C 925.573 22.137 923.185 21.214 920.473 20.672 C 917.868 20.129 914.993 19.858 911.846 19.858 C 909.784 19.858 907.722 20.075 905.66 20.509 C 903.599 20.943 901.7 21.703 899.964 22.788 C 898.336 23.873 896.979 25.229 895.894 26.857 C 894.809 28.485 894.267 30.547 894.267 33.042 C 894.267 35.321 894.701 37.166 895.569 38.577 C 896.437 39.987 898.119 41.289 900.615 42.483 C 903.219 43.677 906.746 44.87 911.195 46.064 C 915.752 47.258 921.666 48.777 928.937 50.622 C 931.107 51.056 934.091 51.87 937.889 53.063 C 941.796 54.148 945.648 55.939 949.446 58.434 C 953.244 60.93 956.499 64.294 959.212 68.526 C 962.033 72.65 963.444 77.967 963.444 84.478 C 963.444 89.795 962.413 94.732 960.351 99.29 C 958.29 103.847 955.197 107.808 951.073 111.172 C 947.058 114.427 942.013 116.977 935.936 118.822 C 929.968 120.667 923.023 121.589 915.101 121.589 C 908.699 121.589 902.459 120.775 896.383 119.148 C 890.414 117.629 885.097 115.187 880.431 111.823 C 875.873 108.459 872.238 104.173 869.525 98.964 C 866.813 93.756 865.51 87.57 865.619 80.408 L 890.36 80.408 Z" fill="currentColor" fill-rule="nonzero"></path>
</svg>