<svg xmlns="http://www.w3.org/2000/svg" width="968.044" height="126.189" viewBox="0 0 968.044 126.189" fill="none">
  <path d="M 84.825 44.132 L 82.55 44.469 L 82.841 46.432 L 84.825 46.432 L 84.825 44.132 Z M 81.895 36.156 L 79.93 37.352 L 79.942 37.372 L 79.955 37.391 L 81.895 36.156 Z M 68.385 25.413 L 67.559 27.56 L 67.608 27.579 L 67.658 27.595 L 68.385 25.413 Z M 44.783 27.204 L 45.877 29.227 L 45.898 29.216 L 45.918 29.204 L 44.783 27.204 Z M 35.017 36.156 L 36.922 37.445 L 36.931 37.432 L 36.939 37.419 L 35.017 36.156 Z M 29.483 48.852 L 27.251 48.294 L 27.245 48.319 L 27.24 48.343 L 29.483 48.852 Z M 29.483 77.988 L 27.242 78.509 L 27.25 78.54 L 27.258 78.571 L 29.483 77.988 Z M 44.783 99.311 L 43.648 101.311 L 43.669 101.323 L 43.689 101.334 L 44.783 99.311 Z M 77.663 95.404 L 75.98 93.837 L 75.971 93.847 L 75.961 93.857 L 77.663 95.404 Z M 85.802 76.523 L 85.802 74.223 L 83.771 74.223 L 83.519 76.238 L 85.802 76.523 Z M 110.543 76.523 L 112.833 76.728 L 113.058 74.223 L 110.543 74.223 L 110.543 76.523 Z M 35.342 119.332 L 34.405 121.432 L 34.425 121.441 L 34.444 121.449 L 35.342 119.332 Z M 6.207 87.429 L 4.038 88.194 L 4.041 88.204 L 6.207 87.429 Z M 6.207 39.574 L 8.375 40.34 L 8.379 40.33 L 6.207 39.574 Z M 35.342 7.02 L 34.417 4.915 L 34.405 4.92 L 35.342 7.02 Z M 77.5 5.067 L 76.786 7.253 L 76.798 7.257 L 77.5 5.067 Z M 92.801 13.206 L 91.359 14.997 L 91.382 15.016 L 91.407 15.035 L 92.801 13.206 Z M 109.566 44.132 L 109.566 46.432 L 112.14 46.432 L 111.852 43.874 L 109.566 44.132 Z M 84.825 44.132 L 87.1 43.795 C 86.621 40.561 85.536 37.594 83.835 34.921 L 81.895 36.156 L 79.955 37.391 C 81.292 39.493 82.161 41.843 82.55 44.469 L 84.825 44.132 Z M 81.895 36.156 L 83.86 34.96 C 82.203 32.238 80.128 29.868 77.645 27.858 L 76.198 29.645 L 74.751 31.433 C 76.825 33.112 78.549 35.083 79.93 37.352 L 81.895 36.156 Z M 76.198 29.645 L 77.645 27.858 C 75.141 25.83 72.289 24.29 69.112 23.231 L 68.385 25.413 L 67.658 27.595 C 70.34 28.489 72.698 29.771 74.751 31.433 L 76.198 29.645 Z M 68.385 25.413 L 69.211 23.267 C 66.115 22.076 62.85 21.486 59.432 21.486 L 59.432 23.786 L 59.432 26.086 C 62.309 26.086 65.012 26.58 67.559 27.56 L 68.385 25.413 Z M 59.432 23.786 L 59.432 21.486 C 53.38 21.486 48.084 22.686 43.648 25.204 L 44.783 27.204 L 45.918 29.204 C 49.512 27.164 53.983 26.086 59.432 26.086 L 59.432 23.786 Z M 44.783 27.204 L 43.689 25.181 C 39.341 27.531 35.8 30.776 33.095 34.893 L 35.017 36.156 L 36.939 37.419 C 39.225 33.941 42.195 31.217 45.877 29.227 L 44.783 27.204 Z M 35.017 36.156 L 33.112 34.867 C 30.45 38.802 28.503 43.286 27.251 48.294 L 29.483 48.852 L 31.714 49.41 C 32.849 44.869 34.592 40.89 36.922 37.445 L 35.017 36.156 Z M 29.483 48.852 L 27.24 48.343 C 26.115 53.291 25.555 58.4 25.555 63.664 L 27.855 63.664 L 30.155 63.664 C 30.155 58.729 30.68 53.963 31.726 49.362 L 29.483 48.852 Z M 27.855 63.664 L 25.555 63.664 C 25.555 68.719 26.117 73.669 27.242 78.509 L 29.483 77.988 L 31.723 77.467 C 30.678 72.975 30.155 68.375 30.155 63.664 L 27.855 63.664 Z M 29.483 77.988 L 27.258 78.571 C 28.514 83.365 30.462 87.73 33.112 91.647 L 35.017 90.359 L 36.922 89.07 C 34.58 85.608 32.839 81.726 31.708 77.405 L 29.483 77.988 Z M 35.017 90.359 L 33.112 91.647 C 35.813 95.641 39.336 98.864 43.648 101.311 L 44.783 99.311 L 45.918 97.311 C 42.2 95.2 39.212 92.455 36.922 89.07 L 35.017 90.359 Z M 44.783 99.311 L 43.689 101.334 C 48.117 103.727 53.397 104.866 59.432 104.866 L 59.432 102.566 L 59.432 100.266 C 53.966 100.266 49.479 99.235 45.877 97.288 L 44.783 99.311 Z M 59.432 102.566 L 59.432 104.866 C 67.745 104.866 74.498 102.305 79.365 96.952 L 77.663 95.404 L 75.961 93.857 C 72.147 98.053 66.746 100.266 59.432 100.266 L 59.432 102.566 Z M 77.663 95.404 L 79.346 96.972 C 84.188 91.776 87.06 85 88.084 76.808 L 85.802 76.523 L 83.519 76.238 C 82.59 83.672 80.036 89.484 75.98 93.837 L 77.663 95.404 Z M 85.802 76.523 L 85.802 78.823 L 110.543 78.823 L 110.543 76.523 L 110.543 74.223 L 85.802 74.223 L 85.802 76.523 Z M 110.543 76.523 L 108.252 76.318 C 107.621 83.359 105.998 89.662 103.41 95.252 L 105.497 96.218 L 107.584 97.185 C 110.421 91.056 112.162 84.228 112.833 76.728 L 110.543 76.523 Z M 105.497 96.218 L 103.41 95.252 C 100.814 100.858 97.406 105.599 93.19 109.506 L 94.754 111.193 L 96.317 112.88 C 101 108.54 104.753 103.299 107.584 97.185 L 105.497 96.218 Z M 94.754 111.193 L 93.19 109.506 C 88.977 113.412 84.036 116.402 78.342 118.472 L 79.128 120.634 L 79.914 122.795 C 86.157 120.525 91.633 117.222 96.317 112.88 L 94.754 111.193 Z M 79.128 120.634 L 78.342 118.472 C 72.655 120.54 66.36 121.589 59.432 121.589 L 59.432 123.889 L 59.432 126.189 C 66.829 126.189 73.664 125.068 79.914 122.795 L 79.128 120.634 Z M 59.432 123.889 L 59.432 121.589 C 50.799 121.589 43.08 120.116 36.241 117.214 L 35.342 119.332 L 34.444 121.449 C 41.928 124.624 50.27 126.189 59.432 126.189 L 59.432 123.889 Z M 35.342 119.332 L 36.279 117.231 C 29.503 114.208 23.803 110.107 19.147 104.934 L 17.438 106.473 L 15.728 108.012 C 20.839 113.69 27.075 118.162 34.405 121.432 L 35.342 119.332 Z M 17.438 106.473 L 19.147 104.934 C 14.476 99.744 10.881 93.659 8.372 86.653 L 6.207 87.429 L 4.041 88.204 C 6.74 95.74 10.633 102.351 15.728 108.012 L 17.438 106.473 Z M 6.207 87.429 L 8.375 86.663 C 5.865 79.55 4.6 71.889 4.6 63.664 L 2.3 63.664 L 0 63.664 C 0 72.368 1.34 80.55 4.038 88.194 L 6.207 87.429 Z M 2.3 63.664 L 4.6 63.664 C 4.6 55.216 5.867 47.448 8.375 40.34 L 6.207 39.574 L 4.038 38.809 C 1.337 46.459 0 54.751 0 63.664 L 2.3 63.664 Z M 6.207 39.574 L 8.379 40.33 C 10.892 33.103 14.491 26.858 19.162 21.564 L 17.438 20.042 L 15.713 18.52 C 10.618 24.294 6.729 31.07 4.034 38.819 L 6.207 39.574 Z M 17.438 20.042 L 19.162 21.564 C 23.817 16.288 29.513 12.14 36.279 9.121 L 35.342 7.02 L 34.405 4.92 C 27.065 8.195 20.824 12.727 15.713 18.52 L 17.438 20.042 Z M 35.342 7.02 L 36.268 9.126 C 43.1 6.124 50.809 4.6 59.432 4.6 L 59.432 2.3 L 59.432 0 C 50.259 0 41.908 1.623 34.417 4.915 L 35.342 7.02 Z M 59.432 2.3 L 59.432 4.6 C 65.611 4.6 71.391 5.49 76.786 7.253 L 77.5 5.067 L 78.215 2.881 C 72.324 0.955 66.059 0 59.432 0 L 59.432 2.3 Z M 77.5 5.067 L 76.798 7.257 C 82.296 9.021 87.142 11.603 91.359 14.997 L 92.801 13.206 L 94.243 11.414 C 89.561 7.646 84.207 4.803 78.203 2.877 L 77.5 5.067 Z M 92.801 13.206 L 91.407 15.035 C 95.704 18.309 99.244 22.407 102.027 27.355 L 104.032 26.227 L 106.036 25.1 C 102.96 19.63 99.012 15.047 94.195 11.376 L 92.801 13.206 Z M 104.032 26.227 L 102.027 27.355 C 104.787 32.262 106.551 37.927 107.281 44.39 L 109.566 44.132 L 111.852 43.874 C 111.062 36.881 109.136 30.61 106.036 25.1 L 104.032 26.227 Z M 109.566 44.132 L 109.566 41.832 L 84.825 41.832 L 84.825 44.132 L 84.825 46.432 L 109.566 46.432 L 109.566 44.132 Z M 153.548 57.642 L 151.248 57.642 L 151.248 59.942 L 153.548 59.942 L 153.548 57.642 Z M 194.729 28.832 L 193.201 30.551 L 193.219 30.567 L 193.238 30.582 L 194.729 28.832 Z M 153.548 24.925 L 153.548 22.625 L 151.248 22.625 L 151.248 24.925 L 153.548 24.925 Z M 127.993 5.067 L 127.993 2.767 L 125.693 2.767 L 125.693 5.067 L 127.993 5.067 Z M 204.658 7.671 L 203.766 9.791 L 203.799 9.805 L 203.833 9.818 L 204.658 7.671 Z M 215.401 14.508 L 213.775 16.134 L 213.79 16.149 L 213.805 16.163 L 215.401 14.508 Z M 222.238 24.762 L 220.094 25.596 L 220.108 25.632 L 220.124 25.668 L 222.238 24.762 Z M 220.284 54.875 L 218.301 53.711 L 218.291 53.727 L 218.282 53.743 L 220.284 54.875 Z M 206.286 66.269 L 205.432 64.133 L 203.986 64.711 L 203.986 66.269 L 206.286 66.269 Z M 206.286 66.594 L 203.986 66.594 L 203.986 68.346 L 205.674 68.811 L 206.286 66.594 Z M 214.099 70.663 L 212.565 72.377 L 212.591 72.4 L 212.618 72.423 L 214.099 70.663 Z M 219.145 77.011 L 217.106 78.075 L 217.116 78.094 L 217.126 78.113 L 219.145 77.011 Z M 221.912 84.987 L 219.65 85.406 L 219.658 85.446 L 219.667 85.486 L 221.912 84.987 Z M 223.214 93.777 L 225.51 93.642 L 225.509 93.624 L 225.508 93.607 L 223.214 93.777 Z M 224.028 107.938 L 221.736 108.129 L 221.74 108.176 L 221.746 108.223 L 224.028 107.938 Z M 225.33 115.425 L 223.087 115.935 L 223.101 115.996 L 223.119 116.057 L 225.33 115.425 Z M 228.097 121.285 L 228.097 123.585 L 232.636 123.585 L 229.952 119.925 L 228.097 121.285 Z M 202.542 121.285 L 200.394 122.106 L 200.959 123.585 L 202.542 123.585 L 202.542 121.285 Z M 198.473 93.451 L 200.751 93.133 L 200.75 93.126 L 198.473 93.451 Z M 153.548 75.872 L 153.548 73.572 L 151.248 73.572 L 151.248 75.872 L 153.548 75.872 Z M 153.548 121.285 L 153.548 123.585 L 155.848 123.585 L 155.848 121.285 L 153.548 121.285 Z M 127.993 121.285 L 125.693 121.285 L 125.693 123.585 L 127.993 123.585 L 127.993 121.285 Z M 153.548 57.642 L 153.548 59.942 L 181.545 59.942 L 181.545 57.642 L 181.545 55.342 L 153.548 55.342 L 153.548 57.642 Z M 181.545 57.642 L 181.545 59.942 C 187.697 59.942 192.74 58.581 196.257 55.454 L 194.729 53.735 L 193.201 52.016 C 190.859 54.099 187.113 55.342 181.545 55.342 L 181.545 57.642 Z M 194.729 53.735 L 196.257 55.454 C 199.879 52.235 201.424 47.228 201.424 41.039 L 199.124 41.039 L 196.824 41.039 C 196.824 46.57 195.439 50.027 193.201 52.016 L 194.729 53.735 Z M 199.124 41.039 L 201.424 41.039 C 201.424 35.044 199.866 30.186 196.221 27.081 L 194.729 28.832 L 193.238 30.582 C 195.452 32.469 196.824 35.749 196.824 41.039 L 199.124 41.039 Z M 194.729 28.832 L 196.257 27.112 C 192.74 23.986 187.697 22.625 181.545 22.625 L 181.545 24.925 L 181.545 27.225 C 187.113 27.225 190.859 28.468 193.201 30.551 L 194.729 28.832 Z M 181.545 24.925 L 181.545 22.625 L 153.548 22.625 L 153.548 24.925 L 153.548 27.225 L 181.545 27.225 L 181.545 24.925 Z M 153.548 24.925 L 151.248 24.925 L 151.248 57.642 L 153.548 57.642 L 155.848 57.642 L 155.848 24.925 L 153.548 24.925 Z M 127.993 5.067 L 127.993 7.367 L 190.66 7.367 L 190.66 5.067 L 190.66 2.767 L 127.993 2.767 L 127.993 5.067 Z M 190.66 5.067 L 190.66 7.367 C 195.612 7.367 199.967 8.192 203.766 9.791 L 204.658 7.671 L 205.551 5.552 C 201.102 3.678 196.126 2.767 190.66 2.767 L 190.66 5.067 Z M 204.658 7.671 L 203.833 9.818 C 207.793 11.341 211.093 13.452 213.775 16.134 L 215.401 14.508 L 217.028 12.881 C 213.849 9.703 209.988 7.257 205.484 5.525 L 204.658 7.671 Z M 215.401 14.508 L 213.805 16.163 C 216.605 18.864 218.696 22.002 220.094 25.596 L 222.238 24.762 L 224.381 23.929 C 222.74 19.709 220.274 16.011 216.998 12.852 L 215.401 14.508 Z M 222.238 24.762 L 220.124 25.668 C 221.619 29.159 222.379 32.971 222.379 37.133 L 224.679 37.133 L 226.979 37.133 C 226.979 32.396 226.111 27.962 224.352 23.856 L 222.238 24.762 Z M 224.679 37.133 L 222.379 37.133 C 222.379 43.635 220.989 49.131 218.301 53.711 L 220.284 54.875 L 222.268 56.039 C 225.44 50.635 226.979 44.304 226.979 37.133 L 224.679 37.133 Z M 220.284 54.875 L 218.282 53.743 C 215.772 58.185 211.569 61.678 205.432 64.133 L 206.286 66.269 L 207.14 68.404 C 214.025 65.65 219.154 61.548 222.287 56.007 L 220.284 54.875 Z M 206.286 66.269 L 203.986 66.269 L 203.986 66.594 L 206.286 66.594 L 208.586 66.594 L 208.586 66.269 L 206.286 66.269 Z M 206.286 66.594 L 205.674 68.811 C 208.541 69.602 210.812 70.808 212.565 72.377 L 214.099 70.663 L 215.633 68.949 C 213.263 66.829 210.325 65.323 206.898 64.377 L 206.286 66.594 Z M 214.099 70.663 L 212.618 72.423 C 214.44 73.957 215.936 75.833 217.106 78.075 L 219.145 77.011 L 221.184 75.948 C 219.749 73.198 217.882 70.842 215.581 68.904 L 214.099 70.663 Z M 219.145 77.011 L 217.126 78.113 C 218.301 80.267 219.148 82.692 219.65 85.406 L 221.912 84.987 L 224.174 84.568 C 223.591 81.422 222.593 78.53 221.164 75.91 L 219.145 77.011 Z M 221.912 84.987 L 219.667 85.486 C 220.294 88.31 220.712 91.13 220.92 93.947 L 223.214 93.777 L 225.508 93.607 C 225.283 90.564 224.832 87.524 224.157 84.488 L 221.912 84.987 Z M 223.214 93.777 L 220.918 93.912 C 221.026 95.742 221.134 97.9 221.242 100.388 L 223.54 100.288 L 225.838 100.188 C 225.729 97.684 225.62 95.501 225.51 93.642 L 223.214 93.777 Z M 223.54 100.288 L 221.242 100.388 C 221.352 102.915 221.517 105.496 221.736 108.129 L 224.028 107.938 L 226.32 107.747 C 226.105 105.171 225.945 102.652 225.838 100.188 L 223.54 100.288 Z M 224.028 107.938 L 221.746 108.223 C 222.08 110.898 222.527 113.469 223.087 115.935 L 225.33 115.425 L 227.573 114.916 C 227.048 112.607 226.627 110.187 226.31 107.653 L 224.028 107.938 Z M 225.33 115.425 L 223.119 116.057 C 223.832 118.553 224.862 120.763 226.243 122.645 L 228.097 121.285 L 229.952 119.925 C 228.945 118.551 228.131 116.855 227.542 114.793 L 225.33 115.425 Z M 228.097 121.285 L 228.097 118.985 L 202.542 118.985 L 202.542 121.285 L 202.542 123.585 L 228.097 123.585 L 228.097 121.285 Z M 202.542 121.285 L 204.691 120.464 C 203.383 117.043 202.548 112.887 202.233 107.954 L 199.938 108.101 L 197.643 108.247 C 197.979 113.514 198.88 118.148 200.394 122.106 L 202.542 121.285 Z M 199.938 108.101 L 202.233 107.954 C 201.904 102.801 201.411 97.861 200.751 93.133 L 198.473 93.451 L 196.195 93.769 C 196.838 98.374 197.321 103.2 197.643 108.247 L 199.938 108.101 Z M 198.473 93.451 L 200.75 93.126 C 199.847 86.806 197.883 81.795 194.565 78.478 L 192.939 80.104 L 191.313 81.73 C 193.638 84.056 195.363 87.943 196.196 93.777 L 198.473 93.451 Z M 192.939 80.104 L 194.565 78.478 C 191.114 75.026 185.761 73.572 179.103 73.572 L 179.103 75.872 L 179.103 78.172 C 185.25 78.172 189.121 79.539 191.313 81.73 L 192.939 80.104 Z M 179.103 75.872 L 179.103 73.572 L 153.548 73.572 L 153.548 75.872 L 153.548 78.172 L 179.103 78.172 L 179.103 75.872 Z M 153.548 75.872 L 151.248 75.872 L 151.248 121.285 L 153.548 121.285 L 155.848 121.285 L 155.848 75.872 L 153.548 75.872 Z M 153.548 121.285 L 153.548 118.985 L 127.993 118.985 L 127.993 121.285 L 127.993 123.585 L 153.548 123.585 L 153.548 121.285 Z M 127.993 121.285 L 130.293 121.285 L 130.293 5.067 L 127.993 5.067 L 125.693 5.067 L 125.693 121.285 L 127.993 121.285 Z M 245.462 5.067 L 245.462 2.767 L 243.162 2.767 L 243.162 5.067 L 245.462 5.067 Z M 271.017 5.067 L 273.317 5.067 L 273.317 2.767 L 271.017 2.767 L 271.017 5.067 Z M 271.017 121.285 L 271.017 123.585 L 273.317 123.585 L 273.317 121.285 L 271.017 121.285 Z M 245.462 121.285 L 243.162 121.285 L 243.162 123.585 L 245.462 123.585 L 245.462 121.285 Z M 245.462 5.067 L 245.462 7.367 L 271.017 7.367 L 271.017 5.067 L 271.017 2.767 L 245.462 2.767 L 245.462 5.067 Z M 271.017 5.067 L 268.717 5.067 L 268.717 121.285 L 271.017 121.285 L 273.317 121.285 L 273.317 5.067 L 271.017 5.067 Z M 271.017 121.285 L 271.017 118.985 L 245.462 118.985 L 245.462 121.285 L 245.462 123.585 L 271.017 123.585 L 271.017 121.285 Z M 245.462 121.285 L 247.762 121.285 L 247.762 5.067 L 245.462 5.067 L 243.162 5.067 L 243.162 121.285 L 245.462 121.285 Z M 322.765 76.36 L 320.597 75.591 L 319.508 78.66 L 322.765 78.66 L 322.765 76.36 Z M 352.877 76.36 L 352.877 78.66 L 356.099 78.66 L 355.053 75.613 L 352.877 76.36 Z M 338.228 33.715 L 340.403 32.967 L 339.87 31.415 L 338.228 31.415 L 338.228 33.715 Z M 337.903 33.715 L 337.903 31.415 L 336.278 31.415 L 335.735 32.945 L 337.903 33.715 Z M 325.206 5.067 L 325.206 2.767 L 323.617 2.767 L 323.055 4.253 L 325.206 5.067 Z M 351.412 5.067 L 353.567 4.261 L 353.008 2.767 L 351.412 2.767 L 351.412 5.067 Z M 394.872 121.285 L 394.872 123.585 L 398.188 123.585 L 397.027 120.479 L 394.872 121.285 Z M 368.341 121.285 L 366.163 122.025 L 366.693 123.585 L 368.341 123.585 L 368.341 121.285 Z M 359.551 95.404 L 361.729 94.665 L 361.199 93.104 L 359.551 93.104 L 359.551 95.404 Z M 316.091 95.404 L 316.091 93.104 L 314.463 93.104 L 313.922 94.64 L 316.091 95.404 Z M 306.976 121.285 L 306.976 123.585 L 308.605 123.585 L 309.146 122.049 L 306.976 121.285 Z M 281.258 121.285 L 279.107 120.471 L 277.93 123.585 L 281.258 123.585 L 281.258 121.285 Z M 322.765 76.36 L 322.765 78.66 L 352.877 78.66 L 352.877 76.36 L 352.877 74.06 L 322.765 74.06 L 322.765 76.36 Z M 352.877 76.36 L 355.053 75.613 L 340.403 32.967 L 338.228 33.715 L 336.053 34.462 L 350.702 77.108 L 352.877 76.36 Z M 338.228 33.715 L 338.228 31.415 L 337.903 31.415 L 337.903 33.715 L 337.903 36.015 L 338.228 36.015 L 338.228 33.715 Z M 337.903 33.715 L 335.735 32.945 L 320.597 75.591 L 322.765 76.36 L 324.932 77.13 L 340.07 34.484 L 337.903 33.715 Z M 325.206 5.067 L 325.206 7.367 L 351.412 7.367 L 351.412 5.067 L 351.412 2.767 L 325.206 2.767 L 325.206 5.067 Z M 351.412 5.067 L 349.258 5.873 L 392.718 122.091 L 394.872 121.285 L 397.027 120.479 L 353.567 4.261 L 351.412 5.067 Z M 394.872 121.285 L 394.872 118.985 L 368.341 118.985 L 368.341 121.285 L 368.341 123.585 L 394.872 123.585 L 394.872 121.285 Z M 368.341 121.285 L 370.518 120.545 L 361.729 94.665 L 359.551 95.404 L 357.373 96.144 L 366.163 122.025 L 368.341 121.285 Z M 359.551 95.404 L 359.551 93.104 L 316.091 93.104 L 316.091 95.404 L 316.091 97.704 L 359.551 97.704 L 359.551 95.404 Z M 316.091 95.404 L 313.922 94.64 L 304.807 120.521 L 306.976 121.285 L 309.146 122.049 L 318.261 96.169 L 316.091 95.404 Z M 306.976 121.285 L 306.976 118.985 L 281.258 118.985 L 281.258 121.285 L 281.258 123.585 L 306.976 123.585 L 306.976 121.285 Z M 281.258 121.285 L 283.41 122.099 L 327.358 5.881 L 325.206 5.067 L 323.055 4.253 L 279.107 120.471 L 281.258 121.285 Z M 430.449 99.799 L 428.149 99.799 L 428.149 102.099 L 430.449 102.099 L 430.449 99.799 Z M 473.258 92.149 L 474.884 93.775 L 474.9 93.759 L 474.916 93.743 L 473.258 92.149 Z M 480.42 49.178 L 478.177 49.688 L 478.184 49.718 L 478.191 49.748 L 480.42 49.178 Z M 464.468 29.32 L 463.549 31.428 L 463.581 31.442 L 463.614 31.455 L 464.468 29.32 Z M 430.449 26.553 L 430.449 24.253 L 428.149 24.253 L 428.149 26.553 L 430.449 26.553 Z M 404.894 5.067 L 404.894 2.767 L 402.594 2.767 L 402.594 5.067 L 404.894 5.067 Z M 475.862 8.648 L 475.058 10.803 L 475.07 10.807 L 475.862 8.648 Z M 492.627 19.391 L 490.982 20.998 L 490.992 21.008 L 491.001 21.017 L 492.627 19.391 Z M 503.696 37.296 L 501.534 38.082 L 501.539 38.096 L 501.545 38.11 L 503.696 37.296 Z M 494.581 104.52 L 492.832 103.026 L 492.823 103.036 L 492.814 103.047 L 494.581 104.52 Z M 478.141 116.89 L 479.085 118.988 L 479.092 118.984 L 479.1 118.981 L 478.141 116.89 Z M 404.894 121.285 L 402.594 121.285 L 402.594 123.585 L 404.894 123.585 L 404.894 121.285 Z M 430.449 99.799 L 430.449 102.099 L 453.237 102.099 L 453.237 99.799 L 453.237 97.499 L 430.449 97.499 L 430.449 99.799 Z M 453.237 99.799 L 453.237 102.099 C 457.18 102.099 461.013 101.461 464.727 100.184 L 463.98 98.009 L 463.232 95.834 C 460.001 96.944 456.673 97.499 453.237 97.499 L 453.237 99.799 Z M 463.98 98.009 L 464.727 100.184 C 468.546 98.871 471.935 96.724 474.884 93.775 L 473.258 92.149 L 471.631 90.523 C 469.154 93 466.359 94.759 463.232 95.834 L 463.98 98.009 Z M 473.258 92.149 L 474.916 93.743 C 477.891 90.649 480.214 86.721 481.928 82.034 L 479.769 81.243 L 477.608 80.453 C 476.068 84.664 474.05 88.007 471.6 90.555 L 473.258 92.149 Z M 479.769 81.243 L 481.928 82.034 C 483.675 77.26 484.51 71.55 484.51 64.966 L 482.21 64.966 L 479.91 64.966 C 479.91 71.188 479.117 76.329 477.608 80.453 L 479.769 81.243 Z M 482.21 64.966 L 484.51 64.966 C 484.51 58.955 483.898 53.495 482.648 48.608 L 480.42 49.178 L 478.191 49.748 C 479.328 54.193 479.91 59.259 479.91 64.966 L 482.21 64.966 Z M 480.42 49.178 L 482.662 48.668 C 481.514 43.616 479.542 39.228 476.704 35.562 L 474.885 36.97 L 473.067 38.378 C 475.437 41.44 477.155 45.19 478.177 49.688 L 480.42 49.178 Z M 474.885 36.97 L 476.704 35.562 C 473.824 31.843 470.005 29.057 465.322 27.184 L 464.468 29.32 L 463.614 31.455 C 467.613 33.055 470.738 35.37 473.067 38.378 L 474.885 36.97 Z M 464.468 29.32 L 465.387 27.211 C 460.78 25.203 455.181 24.253 448.679 24.253 L 448.679 26.553 L 448.679 28.853 C 454.765 28.853 459.692 29.747 463.549 31.428 L 464.468 29.32 Z M 448.679 26.553 L 448.679 24.253 L 430.449 24.253 L 430.449 26.553 L 430.449 28.853 L 448.679 28.853 L 448.679 26.553 Z M 430.449 26.553 L 428.149 26.553 L 428.149 99.799 L 430.449 99.799 L 432.749 99.799 L 432.749 26.553 L 430.449 26.553 Z M 404.894 5.067 L 404.894 7.367 L 455.027 7.367 L 455.027 5.067 L 455.027 2.767 L 404.894 2.767 L 404.894 5.067 Z M 455.027 5.067 L 455.027 7.367 C 462.267 7.367 468.937 8.52 475.058 10.803 L 475.862 8.648 L 476.666 6.493 C 469.983 4.001 462.763 2.767 455.027 2.767 L 455.027 5.067 Z M 475.862 8.648 L 475.07 10.807 C 481.272 13.081 486.565 16.479 490.982 20.998 L 492.627 19.391 L 494.272 17.783 C 489.357 12.754 483.474 8.989 476.654 6.489 L 475.862 8.648 Z M 492.627 19.391 L 491.001 21.017 C 495.509 25.525 499.03 31.195 501.534 38.082 L 503.696 37.296 L 505.857 36.51 C 503.153 29.073 499.295 22.806 494.254 17.764 L 492.627 19.391 Z M 503.696 37.296 L 501.545 38.11 C 504.137 44.954 505.465 53.076 505.465 62.525 L 507.765 62.525 L 510.065 62.525 C 510.065 52.659 508.68 43.961 505.847 36.481 L 503.696 37.296 Z M 507.765 62.525 L 505.465 62.525 C 505.465 70.792 504.405 78.377 502.308 85.297 L 504.51 85.964 L 506.711 86.631 C 508.955 79.226 510.065 71.186 510.065 62.525 L 507.765 62.525 Z M 504.51 85.964 L 502.308 85.297 C 500.222 92.183 497.056 98.08 492.832 103.026 L 494.581 104.52 L 496.329 106.013 C 501.003 100.542 504.457 94.068 506.711 86.631 L 504.51 85.964 Z M 494.581 104.52 L 492.814 103.047 C 488.709 107.973 483.512 111.894 477.181 114.8 L 478.141 116.89 L 479.1 118.981 C 486.008 115.81 491.771 111.484 496.348 105.992 L 494.581 104.52 Z M 478.141 116.89 L 477.197 114.793 C 471.046 117.56 463.678 118.985 455.027 118.985 L 455.027 121.285 L 455.027 123.585 C 464.173 123.585 472.213 122.08 479.085 118.988 L 478.141 116.89 Z M 455.027 121.285 L 455.027 118.985 L 404.894 118.985 L 404.894 121.285 L 404.894 123.585 L 455.027 123.585 L 455.027 121.285 Z M 404.894 121.285 L 407.194 121.285 L 407.194 5.067 L 404.894 5.067 L 402.594 5.067 L 402.594 121.285 L 404.894 121.285 Z M 547.678 77.988 L 545.438 78.509 L 545.445 78.54 L 545.453 78.571 L 547.678 77.988 Z M 562.979 99.311 L 561.843 101.311 L 561.864 101.323 L 561.885 101.334 L 562.979 99.311 Z M 592.277 99.311 L 593.371 101.334 L 593.392 101.323 L 593.413 101.311 L 592.277 99.311 Z M 607.415 77.988 L 605.187 77.418 L 605.182 77.437 L 605.177 77.455 L 607.415 77.988 Z M 607.415 48.852 L 605.172 49.362 L 605.178 49.386 L 605.184 49.41 L 607.415 48.852 Z M 602.043 36.156 L 600.121 37.419 L 600.13 37.432 L 600.138 37.445 L 602.043 36.156 Z M 592.277 27.204 L 591.142 29.204 L 591.163 29.216 L 591.184 29.227 L 592.277 27.204 Z M 562.979 27.204 L 564.072 29.227 L 564.093 29.216 L 564.114 29.204 L 562.979 27.204 Z M 553.212 36.156 L 555.117 37.445 L 555.126 37.432 L 555.134 37.419 L 553.212 36.156 Z M 547.678 48.852 L 545.447 48.294 L 545.441 48.319 L 545.435 48.343 L 547.678 48.852 Z M 524.402 39.574 L 526.571 40.34 L 526.574 40.33 L 524.402 39.574 Z M 553.538 7.02 L 552.613 4.915 L 552.601 4.92 L 553.538 7.02 Z M 630.854 39.574 L 628.682 40.33 L 628.685 40.34 L 630.854 39.574 Z M 630.854 87.429 L 633.019 88.204 L 633.023 88.194 L 630.854 87.429 Z M 601.718 119.332 L 602.628 121.444 L 602.641 121.438 L 602.655 121.432 L 601.718 119.332 Z M 553.538 119.332 L 552.601 121.432 L 552.62 121.441 L 552.64 121.449 L 553.538 119.332 Z M 524.402 87.429 L 522.233 88.194 L 522.237 88.204 L 524.402 87.429 Z M 546.05 63.664 L 543.75 63.664 C 543.75 68.719 544.312 73.669 545.438 78.509 L 547.678 77.988 L 549.918 77.467 C 548.874 72.975 548.35 68.375 548.35 63.664 L 546.05 63.664 Z M 547.678 77.988 L 545.453 78.571 C 546.709 83.365 548.657 87.73 551.307 91.647 L 553.212 90.359 L 555.117 89.07 C 552.776 85.608 551.035 81.726 549.903 77.405 L 547.678 77.988 Z M 553.212 90.359 L 551.307 91.647 C 554.009 95.641 557.532 98.864 561.843 101.311 L 562.979 99.311 L 564.114 97.311 C 560.395 95.2 557.407 92.455 555.117 89.07 L 553.212 90.359 Z M 562.979 99.311 L 561.885 101.334 C 566.312 103.727 571.592 104.866 577.628 104.866 L 577.628 102.566 L 577.628 100.266 C 572.161 100.266 567.675 99.235 564.072 97.288 L 562.979 99.311 Z M 577.628 102.566 L 577.628 104.866 C 583.664 104.866 588.944 103.727 593.371 101.334 L 592.277 99.311 L 591.184 97.288 C 587.581 99.235 583.095 100.266 577.628 100.266 L 577.628 102.566 Z M 592.277 99.311 L 593.413 101.311 C 597.724 98.864 601.247 95.641 603.949 91.647 L 602.043 90.359 L 600.138 89.07 C 597.848 92.455 594.861 95.2 591.142 97.311 L 592.277 99.311 Z M 602.043 90.359 L 603.949 91.647 C 606.608 87.716 608.506 83.334 609.652 78.521 L 607.415 77.988 L 605.177 77.455 C 604.153 81.757 602.471 85.622 600.138 89.07 L 602.043 90.359 Z M 607.415 77.988 L 609.643 78.558 C 610.885 73.703 611.505 68.737 611.505 63.664 L 609.205 63.664 L 606.905 63.664 C 606.905 68.358 606.332 72.941 605.187 77.418 L 607.415 77.988 Z M 609.205 63.664 L 611.505 63.664 C 611.505 58.383 610.887 53.258 609.646 48.294 L 607.415 48.852 L 605.184 49.41 C 606.33 53.996 606.905 58.745 606.905 63.664 L 609.205 63.664 Z M 607.415 48.852 L 609.658 48.343 C 608.516 43.317 606.619 38.816 603.949 34.867 L 602.043 36.156 L 600.138 37.445 C 602.459 40.875 604.144 44.838 605.172 49.362 L 607.415 48.852 Z M 602.043 36.156 L 603.966 34.893 C 601.26 30.776 597.719 27.531 593.371 25.181 L 592.277 27.204 L 591.184 29.227 C 594.865 31.217 597.835 33.941 600.121 37.419 L 602.043 36.156 Z M 592.277 27.204 L 593.413 25.204 C 588.976 22.686 583.681 21.486 577.628 21.486 L 577.628 23.786 L 577.628 26.086 C 583.078 26.086 587.548 27.164 591.142 29.204 L 592.277 27.204 Z M 577.628 23.786 L 577.628 21.486 C 571.575 21.486 566.28 22.686 561.843 25.204 L 562.979 27.204 L 564.114 29.204 C 567.707 27.164 572.178 26.086 577.628 26.086 L 577.628 23.786 Z M 562.979 27.204 L 561.885 25.181 C 557.537 27.531 553.996 30.776 551.29 34.893 L 553.212 36.156 L 555.134 37.419 C 557.42 33.941 560.391 31.217 564.072 29.227 L 562.979 27.204 Z M 553.212 36.156 L 551.307 34.867 C 548.646 38.802 546.699 43.286 545.447 48.294 L 547.678 48.852 L 549.909 49.41 C 551.045 44.869 552.787 40.89 555.117 37.445 L 553.212 36.156 Z M 547.678 48.852 L 545.435 48.343 C 544.311 53.291 543.75 58.4 543.75 63.664 L 546.05 63.664 L 548.35 63.664 C 548.35 58.729 548.875 53.963 549.921 49.362 L 547.678 48.852 Z M 520.495 63.664 L 522.795 63.664 C 522.795 55.216 524.062 47.448 526.571 40.34 L 524.402 39.574 L 522.233 38.809 C 519.533 46.459 518.195 54.751 518.195 63.664 L 520.495 63.664 Z M 524.402 39.574 L 526.574 40.33 C 529.088 33.103 532.686 26.858 537.358 21.564 L 535.633 20.042 L 533.909 18.52 C 528.814 24.294 524.925 31.07 522.23 38.819 L 524.402 39.574 Z M 535.633 20.042 L 537.358 21.564 C 542.013 16.288 547.708 12.14 554.475 9.121 L 553.538 7.02 L 552.601 4.92 C 545.261 8.195 539.02 12.727 533.909 18.52 L 535.633 20.042 Z M 553.538 7.02 L 554.463 9.126 C 561.296 6.124 569.005 4.6 577.628 4.6 L 577.628 2.3 L 577.628 0 C 568.455 0 560.104 1.623 552.613 4.915 L 553.538 7.02 Z M 577.628 2.3 L 577.628 4.6 C 586.365 4.6 594.067 6.125 600.781 9.121 L 601.718 7.02 L 602.655 4.92 C 595.262 1.621 586.904 0 577.628 0 L 577.628 2.3 Z M 601.718 7.02 L 600.781 9.121 C 607.548 12.14 613.243 16.288 617.898 21.564 L 619.623 20.042 L 621.347 18.52 C 616.236 12.727 609.995 8.195 602.655 4.92 L 601.718 7.02 Z M 619.623 20.042 L 617.898 21.564 C 622.569 26.858 626.168 33.103 628.682 40.33 L 630.854 39.574 L 633.026 38.819 C 630.331 31.07 626.442 24.294 621.347 18.52 L 619.623 20.042 Z M 630.854 39.574 L 628.685 40.34 C 631.194 47.448 632.46 55.216 632.46 63.664 L 634.76 63.664 L 637.06 63.664 C 637.06 54.751 635.723 46.459 633.023 38.809 L 630.854 39.574 Z M 634.76 63.664 L 632.46 63.664 C 632.46 71.889 631.196 79.55 628.685 86.663 L 630.854 87.429 L 633.023 88.194 C 635.721 80.55 637.06 72.368 637.06 63.664 L 634.76 63.664 Z M 630.854 87.429 L 628.689 86.653 C 626.179 93.659 622.585 99.744 617.913 104.934 L 619.623 106.473 L 621.332 108.012 C 626.427 102.351 630.32 95.74 633.019 88.204 L 630.854 87.429 Z M 619.623 106.473 L 617.913 104.934 C 613.258 110.107 607.558 114.208 600.781 117.231 L 601.718 119.332 L 602.655 121.432 C 609.985 118.162 616.221 113.69 621.332 108.012 L 619.623 106.473 Z M 601.718 119.332 L 600.808 117.219 C 594.087 120.114 586.375 121.589 577.628 121.589 L 577.628 123.889 L 577.628 126.189 C 586.894 126.189 595.242 124.626 602.628 121.444 L 601.718 119.332 Z M 577.628 123.889 L 577.628 121.589 C 568.994 121.589 561.276 120.116 554.436 117.214 L 553.538 119.332 L 552.64 121.449 C 560.124 124.624 568.465 126.189 577.628 126.189 L 577.628 123.889 Z M 553.538 119.332 L 554.475 117.231 C 547.698 114.208 541.998 110.107 537.343 104.934 L 535.633 106.473 L 533.924 108.012 C 539.034 113.69 545.271 118.162 552.601 121.432 L 553.538 119.332 Z M 535.633 106.473 L 537.343 104.934 C 532.671 99.744 529.077 93.659 526.567 86.653 L 524.402 87.429 L 522.237 88.204 C 524.936 95.74 528.829 102.351 533.924 108.012 L 535.633 106.473 Z M 524.402 87.429 L 526.571 86.663 C 524.06 79.55 522.795 71.889 522.795 63.664 L 520.495 63.664 L 518.195 63.664 C 518.195 72.368 519.535 80.55 522.233 88.194 L 524.402 87.429 Z M 677.784 57.642 L 675.484 57.642 L 675.484 59.942 L 677.784 59.942 L 677.784 57.642 Z M 718.965 28.832 L 717.437 30.551 L 717.455 30.567 L 717.473 30.582 L 718.965 28.832 Z M 677.784 24.925 L 677.784 22.625 L 675.484 22.625 L 675.484 24.925 L 677.784 24.925 Z M 652.229 5.067 L 652.229 2.767 L 649.929 2.767 L 649.929 5.067 L 652.229 5.067 Z M 728.894 7.671 L 728.001 9.791 L 728.035 9.805 L 728.068 9.818 L 728.894 7.671 Z M 739.637 14.508 L 738.01 16.134 L 738.025 16.149 L 738.04 16.163 L 739.637 14.508 Z M 746.473 24.762 L 744.329 25.596 L 744.344 25.632 L 744.359 25.668 L 746.473 24.762 Z M 744.52 54.875 L 742.536 53.711 L 742.527 53.727 L 742.518 53.743 L 744.52 54.875 Z M 730.522 66.269 L 729.667 64.133 L 728.222 64.711 L 728.222 66.269 L 730.522 66.269 Z M 730.522 66.594 L 728.222 66.594 L 728.222 68.346 L 729.91 68.811 L 730.522 66.594 Z M 738.335 70.663 L 736.801 72.377 L 736.827 72.4 L 736.853 72.423 L 738.335 70.663 Z M 743.38 77.011 L 741.341 78.075 L 741.351 78.094 L 741.361 78.113 L 743.38 77.011 Z M 746.147 84.987 L 743.886 85.406 L 743.893 85.446 L 743.902 85.486 L 746.147 84.987 Z M 747.45 93.777 L 749.746 93.642 L 749.745 93.624 L 749.743 93.607 L 747.45 93.777 Z M 748.263 107.938 L 745.971 108.129 L 745.975 108.176 L 745.981 108.223 L 748.263 107.938 Z M 749.566 115.425 L 747.323 115.935 L 747.337 115.996 L 747.354 116.057 L 749.566 115.425 Z M 752.333 121.285 L 752.333 123.585 L 756.872 123.585 L 754.188 119.925 L 752.333 121.285 Z M 726.778 121.285 L 724.629 122.106 L 725.195 123.585 L 726.778 123.585 L 726.778 121.285 Z M 722.709 93.451 L 724.987 93.133 L 724.985 93.126 L 722.709 93.451 Z M 677.784 75.872 L 677.784 73.572 L 675.484 73.572 L 675.484 75.872 L 677.784 75.872 Z M 677.784 121.285 L 677.784 123.585 L 680.084 123.585 L 680.084 121.285 L 677.784 121.285 Z M 652.229 121.285 L 649.929 121.285 L 649.929 123.585 L 652.229 123.585 L 652.229 121.285 Z M 677.784 57.642 L 677.784 59.942 L 705.78 59.942 L 705.78 57.642 L 705.78 55.342 L 677.784 55.342 L 677.784 57.642 Z M 705.78 57.642 L 705.78 59.942 C 711.932 59.942 716.976 58.581 720.493 55.454 L 718.965 53.735 L 717.437 52.016 C 715.094 54.099 711.348 55.342 705.78 55.342 L 705.78 57.642 Z M 718.965 53.735 L 720.493 55.454 C 724.115 52.235 725.66 47.228 725.66 41.039 L 723.36 41.039 L 721.06 41.039 C 721.06 46.57 719.675 50.027 717.437 52.016 L 718.965 53.735 Z M 723.36 41.039 L 725.66 41.039 C 725.66 35.044 724.102 30.186 720.456 27.081 L 718.965 28.832 L 717.473 30.582 C 719.688 32.469 721.06 35.749 721.06 41.039 L 723.36 41.039 Z M 718.965 28.832 L 720.493 27.112 C 716.976 23.986 711.932 22.625 705.78 22.625 L 705.78 24.925 L 705.78 27.225 C 711.348 27.225 715.094 28.468 717.437 30.551 L 718.965 28.832 Z M 705.78 24.925 L 705.78 22.625 L 677.784 22.625 L 677.784 24.925 L 677.784 27.225 L 705.78 27.225 L 705.78 24.925 Z M 677.784 24.925 L 675.484 24.925 L 675.484 57.642 L 677.784 57.642 L 680.084 57.642 L 680.084 24.925 L 677.784 24.925 Z M 652.229 5.067 L 652.229 7.367 L 714.896 7.367 L 714.896 5.067 L 714.896 2.767 L 652.229 2.767 L 652.229 5.067 Z M 714.896 5.067 L 714.896 7.367 C 719.847 7.367 724.203 8.192 728.001 9.791 L 728.894 7.671 L 729.786 5.552 C 725.338 3.678 720.361 2.767 714.896 2.767 L 714.896 5.067 Z M 728.894 7.671 L 728.068 9.818 C 732.028 11.341 735.329 13.452 738.01 16.134 L 739.637 14.508 L 741.263 12.881 C 738.085 9.703 734.223 7.257 729.719 5.525 L 728.894 7.671 Z M 739.637 14.508 L 738.04 16.163 C 740.841 18.864 742.932 22.002 744.329 25.596 L 746.473 24.762 L 748.617 23.929 C 746.976 19.709 744.51 16.011 741.233 12.852 L 739.637 14.508 Z M 746.473 24.762 L 744.359 25.668 C 745.855 29.159 746.615 32.971 746.615 37.133 L 748.915 37.133 L 751.215 37.133 C 751.215 32.396 750.347 27.962 748.587 23.856 L 746.473 24.762 Z M 748.915 37.133 L 746.615 37.133 C 746.615 43.635 745.224 49.131 742.536 53.711 L 744.52 54.875 L 746.503 56.039 C 749.675 50.635 751.215 44.304 751.215 37.133 L 748.915 37.133 Z M 744.52 54.875 L 742.518 53.743 C 740.007 58.185 735.804 61.678 729.667 64.133 L 730.522 66.269 L 731.376 68.404 C 738.261 65.65 743.39 61.548 746.522 56.007 L 744.52 54.875 Z M 730.522 66.269 L 728.222 66.269 L 728.222 66.594 L 730.522 66.594 L 732.822 66.594 L 732.822 66.269 L 730.522 66.269 Z M 730.522 66.594 L 729.91 68.811 C 732.776 69.602 735.047 70.808 736.801 72.377 L 738.335 70.663 L 739.868 68.949 C 737.498 66.829 734.561 65.323 731.133 64.377 L 730.522 66.594 Z M 738.335 70.663 L 736.853 72.423 C 738.675 73.957 740.172 75.833 741.341 78.075 L 743.38 77.011 L 745.42 75.948 C 743.985 73.198 742.117 70.842 739.816 68.904 L 738.335 70.663 Z M 743.38 77.011 L 741.361 78.113 C 742.537 80.267 743.383 82.692 743.886 85.406 L 746.147 84.987 L 748.409 84.568 C 747.826 81.422 746.829 78.53 745.4 75.91 L 743.38 77.011 Z M 746.147 84.987 L 743.902 85.486 C 744.53 88.31 744.947 91.13 745.156 93.947 L 747.45 93.777 L 749.743 93.607 C 749.518 90.564 749.067 87.524 748.393 84.488 L 746.147 84.987 Z M 747.45 93.777 L 745.154 93.912 C 745.261 95.742 745.369 97.9 745.477 100.388 L 747.775 100.288 L 750.073 100.188 C 749.964 97.684 749.855 95.501 749.746 93.642 L 747.45 93.777 Z M 747.775 100.288 L 745.477 100.388 C 745.587 102.915 745.752 105.496 745.971 108.129 L 748.263 107.938 L 750.556 107.747 C 750.341 105.171 750.18 102.652 750.073 100.188 L 747.775 100.288 Z M 748.263 107.938 L 745.981 108.223 C 746.316 110.898 746.762 113.469 747.323 115.935 L 749.566 115.425 L 751.808 114.916 C 751.284 112.607 750.863 110.187 750.546 107.653 L 748.263 107.938 Z M 749.566 115.425 L 747.354 116.057 C 748.067 118.553 749.098 120.763 750.478 122.645 L 752.333 121.285 L 754.188 119.925 C 753.18 118.551 752.366 116.855 751.777 114.793 L 749.566 115.425 Z M 752.333 121.285 L 752.333 118.985 L 726.778 118.985 L 726.778 121.285 L 726.778 123.585 L 752.333 123.585 L 752.333 121.285 Z M 726.778 121.285 L 728.926 120.464 C 727.618 117.043 726.784 112.887 726.469 107.954 L 724.173 108.101 L 721.878 108.247 C 722.214 113.514 723.116 118.148 724.629 122.106 L 726.778 121.285 Z M 724.173 108.101 L 726.469 107.954 C 726.14 102.801 725.646 97.861 724.986 93.133 L 722.709 93.451 L 720.431 93.769 C 721.073 98.374 721.556 103.2 721.878 108.247 L 724.173 108.101 Z M 722.709 93.451 L 724.985 93.126 C 724.083 86.806 722.118 81.795 718.801 78.478 L 717.174 80.104 L 715.548 81.73 C 717.873 84.056 719.598 87.943 720.432 93.777 L 722.709 93.451 Z M 717.174 80.104 L 718.801 78.478 C 715.349 75.026 709.997 73.572 703.339 73.572 L 703.339 75.872 L 703.339 78.172 C 709.486 78.172 713.357 79.539 715.548 81.73 L 717.174 80.104 Z M 703.339 75.872 L 703.339 73.572 L 677.784 73.572 L 677.784 75.872 L 677.784 78.172 L 703.339 78.172 L 703.339 75.872 Z M 677.784 75.872 L 675.484 75.872 L 675.484 121.285 L 677.784 121.285 L 680.084 121.285 L 680.084 75.872 L 677.784 75.872 Z M 677.784 121.285 L 677.784 118.985 L 652.229 118.985 L 652.229 121.285 L 652.229 123.585 L 677.784 123.585 L 677.784 121.285 Z M 652.229 121.285 L 654.529 121.285 L 654.529 5.067 L 652.229 5.067 L 649.929 5.067 L 649.929 121.285 L 652.229 121.285 Z M 769.697 5.067 L 769.697 2.767 L 767.397 2.767 L 767.397 5.067 L 769.697 5.067 Z M 856.617 5.067 L 858.917 5.067 L 858.917 2.767 L 856.617 2.767 L 856.617 5.067 Z M 856.617 26.553 L 856.617 28.853 L 858.917 28.853 L 858.917 26.553 L 856.617 26.553 Z M 795.252 26.553 L 795.252 24.253 L 792.952 24.253 L 792.952 26.553 L 795.252 26.553 Z M 795.252 51.457 L 792.952 51.457 L 792.952 53.757 L 795.252 53.757 L 795.252 51.457 Z M 851.571 51.457 L 853.871 51.457 L 853.871 49.157 L 851.571 49.157 L 851.571 51.457 Z M 851.571 71.314 L 851.571 73.614 L 853.871 73.614 L 853.871 71.314 L 851.571 71.314 Z M 795.252 71.314 L 795.252 69.014 L 792.952 69.014 L 792.952 71.314 L 795.252 71.314 Z M 795.252 99.799 L 792.952 99.799 L 792.952 102.099 L 795.252 102.099 L 795.252 99.799 Z M 857.919 99.799 L 860.219 99.799 L 860.219 97.499 L 857.919 97.499 L 857.919 99.799 Z M 857.919 121.285 L 857.919 123.585 L 860.219 123.585 L 860.219 121.285 L 857.919 121.285 Z M 769.697 121.285 L 767.397 121.285 L 767.397 123.585 L 769.697 123.585 L 769.697 121.285 Z M 769.697 5.067 L 769.697 7.367 L 856.617 7.367 L 856.617 5.067 L 856.617 2.767 L 769.697 2.767 L 769.697 5.067 Z M 856.617 5.067 L 854.317 5.067 L 854.317 26.553 L 856.617 26.553 L 858.917 26.553 L 858.917 5.067 L 856.617 5.067 Z M 856.617 26.553 L 856.617 24.253 L 795.252 24.253 L 795.252 26.553 L 795.252 28.853 L 856.617 28.853 L 856.617 26.553 Z M 795.252 26.553 L 792.952 26.553 L 792.952 51.457 L 795.252 51.457 L 797.552 51.457 L 797.552 26.553 L 795.252 26.553 Z M 795.252 51.457 L 795.252 53.757 L 851.571 53.757 L 851.571 51.457 L 851.571 49.157 L 795.252 49.157 L 795.252 51.457 Z M 851.571 51.457 L 849.271 51.457 L 849.271 71.314 L 851.571 71.314 L 853.871 71.314 L 853.871 51.457 L 851.571 51.457 Z M 851.571 71.314 L 851.571 69.014 L 795.252 69.014 L 795.252 71.314 L 795.252 73.614 L 851.571 73.614 L 851.571 71.314 Z M 795.252 71.314 L 792.952 71.314 L 792.952 99.799 L 795.252 99.799 L 797.552 99.799 L 797.552 71.314 L 795.252 71.314 Z M 795.252 99.799 L 795.252 102.099 L 857.919 102.099 L 857.919 99.799 L 857.919 97.499 L 795.252 97.499 L 795.252 99.799 Z M 857.919 99.799 L 855.619 99.799 L 855.619 121.285 L 857.919 121.285 L 860.219 121.285 L 860.219 99.799 L 857.919 99.799 Z M 857.919 121.285 L 857.919 118.985 L 769.697 118.985 L 769.697 121.285 L 769.697 123.585 L 857.919 123.585 L 857.919 121.285 Z M 769.697 121.285 L 771.997 121.285 L 771.997 5.067 L 769.697 5.067 L 767.397 5.067 L 767.397 121.285 L 769.697 121.285 Z M 892.66 82.708 L 894.96 82.708 L 894.96 80.408 L 892.66 80.408 L 892.66 82.708 Z M 900.31 99.311 L 898.916 101.14 L 898.965 101.177 L 899.015 101.211 L 900.31 99.311 Z M 908.612 103.055 L 908 105.272 L 908.036 105.282 L 908.072 105.29 L 908.612 103.055 Z M 925.702 103.706 L 925.988 105.988 L 926.034 105.982 L 926.081 105.974 L 925.702 103.706 Z M 938.724 97.032 L 940.5 98.494 L 940.52 98.47 L 940.54 98.444 L 938.724 97.032 Z M 937.91 82.057 L 936.284 83.684 L 936.306 83.706 L 936.328 83.727 L 937.91 82.057 Z M 906.496 70.501 L 907.12 68.287 L 907.087 68.278 L 907.053 68.269 L 906.496 70.501 Z M 893.799 66.594 L 892.955 68.733 L 892.98 68.743 L 893.004 68.752 L 893.799 66.594 Z M 874.755 51.131 L 872.71 52.183 L 872.728 52.218 L 872.748 52.253 L 874.755 51.131 Z M 875.569 21.995 L 873.584 20.833 L 873.58 20.841 L 873.575 20.849 L 875.569 21.995 Z M 932.702 4.416 L 932.133 6.645 L 932.159 6.651 L 932.184 6.657 L 932.702 4.416 Z M 957.931 22.646 L 955.893 23.712 L 955.907 23.74 L 955.923 23.767 L 957.931 22.646 Z M 961.838 39.737 L 961.838 42.037 L 964.138 42.037 L 964.138 39.737 L 961.838 39.737 Z M 937.096 39.737 L 934.801 39.881 L 934.936 42.037 L 937.096 42.037 L 937.096 39.737 Z M 934.818 31.11 L 932.78 32.178 L 932.8 32.215 L 932.821 32.251 L 934.818 31.11 Z M 922.773 22.972 L 922.304 25.223 L 922.313 25.225 L 922.322 25.227 L 922.773 22.972 Z M 902.264 25.088 L 901.045 23.137 L 901.016 23.155 L 900.988 23.174 L 902.264 25.088 Z M 902.915 44.783 L 901.922 46.858 L 901.939 46.866 L 901.956 46.874 L 902.915 44.783 Z M 913.495 48.364 L 912.899 50.585 L 912.912 50.589 L 913.495 48.364 Z M 931.237 52.922 L 930.671 55.151 L 930.728 55.165 L 930.786 55.177 L 931.237 52.922 Z M 940.189 55.363 L 939.499 57.557 L 939.536 57.569 L 939.573 57.579 L 940.189 55.363 Z M 961.512 70.826 L 959.576 72.067 L 959.594 72.096 L 959.614 72.125 L 961.512 70.826 Z M 953.373 113.472 L 954.822 115.259 L 954.827 115.254 L 953.373 113.472 Z M 938.236 121.122 L 937.568 118.921 L 937.557 118.925 L 938.236 121.122 Z M 898.683 121.448 L 899.278 119.226 L 899.264 119.222 L 899.25 119.219 L 898.683 121.448 Z M 882.731 114.123 L 881.365 115.974 L 881.376 115.981 L 881.386 115.989 L 882.731 114.123 Z M 867.919 82.708 L 867.919 80.408 L 865.654 80.408 L 865.619 82.674 L 867.919 82.708 Z M 892.66 82.708 L 890.36 82.708 C 890.36 86.885 891.114 90.58 892.735 93.698 L 894.776 92.637 L 896.817 91.576 C 895.617 89.27 894.96 86.345 894.96 82.708 L 892.66 82.708 Z M 894.776 92.637 L 892.735 93.698 C 894.292 96.691 896.35 99.185 898.916 101.14 L 900.31 99.311 L 901.704 97.481 C 899.713 95.964 898.082 94.009 896.817 91.576 L 894.776 92.637 Z M 900.31 99.311 L 899.015 101.211 C 901.636 102.999 904.64 104.345 908 105.272 L 908.612 103.055 L 909.223 100.838 C 906.289 100.028 903.759 98.879 901.606 97.411 L 900.31 99.311 Z M 908.612 103.055 L 908.072 105.29 C 911.402 106.094 914.839 106.494 918.378 106.494 L 918.378 104.194 L 918.378 101.894 C 915.189 101.894 912.115 101.534 909.151 100.819 L 908.612 103.055 Z M 918.378 104.194 L 918.378 106.494 C 920.765 106.494 923.303 106.324 925.988 105.988 L 925.702 103.706 L 925.417 101.424 C 922.894 101.739 920.548 101.894 918.378 101.894 L 918.378 104.194 Z M 925.702 103.706 L 926.081 105.974 C 928.887 105.507 931.535 104.685 934.016 103.504 L 933.027 101.427 L 932.038 99.35 C 929.962 100.339 927.727 101.037 925.324 101.437 L 925.702 103.706 Z M 933.027 101.427 L 934.016 103.504 C 936.581 102.282 938.754 100.613 940.5 98.494 L 938.724 97.032 L 936.949 95.57 C 935.656 97.14 934.031 98.402 932.038 99.35 L 933.027 101.427 Z M 938.724 97.032 L 940.54 98.444 C 942.428 96.016 943.303 93.051 943.303 89.708 L 941.003 89.708 L 938.703 89.708 C 938.703 92.224 938.059 94.141 936.909 95.62 L 938.724 97.032 Z M 941.003 89.708 L 943.303 89.708 C 943.303 86.005 942.064 82.825 939.492 80.388 L 937.91 82.057 L 936.328 83.727 C 937.88 85.197 938.703 87.117 938.703 89.708 L 941.003 89.708 Z M 937.91 82.057 L 939.537 80.431 C 937.312 78.207 934.421 76.427 930.951 75.039 L 930.097 77.174 L 929.243 79.31 C 932.284 80.526 934.602 82.001 936.284 83.684 L 937.91 82.057 Z M 930.097 77.174 L 930.951 75.039 C 927.572 73.687 923.771 72.515 919.559 71.518 L 919.029 73.756 L 918.499 75.994 C 922.534 76.95 926.112 78.057 929.243 79.31 L 930.097 77.174 Z M 919.029 73.756 L 919.559 71.518 C 915.468 70.549 911.322 69.472 907.12 68.287 L 906.496 70.501 L 905.871 72.714 C 910.133 73.916 914.343 75.01 918.499 75.994 L 919.029 73.756 Z M 906.496 70.501 L 907.053 68.269 C 902.792 67.204 898.639 65.926 894.595 64.436 L 893.799 66.594 L 893.004 68.752 C 897.207 70.301 901.518 71.627 905.938 72.732 L 906.496 70.501 Z M 893.799 66.594 L 894.644 64.455 C 890.703 62.899 887.203 60.939 884.13 58.584 L 882.731 60.409 L 881.332 62.234 C 884.77 64.87 888.649 67.034 892.955 68.733 L 893.799 66.594 Z M 882.731 60.409 L 884.13 58.584 C 881.131 56.284 878.677 53.434 876.763 50.009 L 874.755 51.131 L 872.748 52.253 C 874.957 56.208 877.82 59.542 881.332 62.234 L 882.731 60.409 Z M 874.755 51.131 L 876.801 50.079 C 875.051 46.677 874.125 42.498 874.125 37.458 L 871.825 37.458 L 869.525 37.458 C 869.525 43.054 870.553 47.99 872.71 52.183 L 874.755 51.131 Z M 871.825 37.458 L 874.125 37.458 C 874.125 31.815 875.303 27.072 877.563 23.142 L 875.569 21.995 L 873.575 20.849 C 870.844 25.6 869.525 31.165 869.525 37.458 L 871.825 37.458 Z M 875.569 21.995 L 877.554 23.157 C 879.997 18.984 883.14 15.539 886.993 12.802 L 885.661 10.927 L 884.329 9.052 C 879.934 12.174 876.35 16.108 873.584 20.833 L 875.569 21.995 Z M 885.661 10.927 L 886.993 12.802 C 890.881 10.039 895.296 7.98 900.26 6.636 L 899.659 4.416 L 899.058 2.196 C 893.605 3.673 888.688 5.954 884.329 9.052 L 885.661 10.927 Z M 899.659 4.416 L 900.26 6.636 C 905.28 5.276 910.287 4.6 915.285 4.6 L 915.285 2.3 L 915.285 0 C 909.866 0 904.456 0.734 899.058 2.196 L 899.659 4.416 Z M 915.285 2.3 L 915.285 4.6 C 921.183 4.6 926.796 5.284 932.133 6.645 L 932.702 4.416 L 933.27 2.187 C 927.538 0.726 921.541 0 915.285 0 L 915.285 2.3 Z M 932.702 4.416 L 932.184 6.657 C 937.566 7.899 942.28 9.957 946.358 12.811 L 947.677 10.927 L 948.995 9.043 C 944.391 5.82 939.122 3.537 933.219 2.175 L 932.702 4.416 Z M 947.677 10.927 L 946.358 12.811 C 950.391 15.634 953.565 19.258 955.893 23.712 L 957.931 22.646 L 959.969 21.581 C 957.306 16.485 953.643 12.296 948.995 9.043 L 947.677 10.927 Z M 957.931 22.646 L 955.923 23.767 C 958.292 28.013 959.538 33.302 959.538 39.737 L 961.838 39.737 L 964.138 39.737 C 964.138 32.717 962.778 26.612 959.939 21.525 L 957.931 22.646 Z M 961.838 39.737 L 961.838 37.437 L 937.096 37.437 L 937.096 39.737 L 937.096 42.037 L 961.838 42.037 L 961.838 39.737 Z M 937.096 39.737 L 939.392 39.594 C 939.16 35.88 938.339 32.636 936.815 29.969 L 934.818 31.11 L 932.821 32.251 C 933.901 34.142 934.599 36.65 934.801 39.881 L 937.096 39.737 Z M 934.818 31.11 L 936.855 30.043 C 935.484 27.426 933.586 25.325 931.163 23.794 L 929.935 25.739 L 928.706 27.683 C 930.407 28.757 931.764 30.237 932.78 32.178 L 934.818 31.11 Z M 929.935 25.739 L 931.163 23.794 C 928.833 22.323 926.176 21.307 923.224 20.716 L 922.773 22.972 L 922.322 25.227 C 924.795 25.722 926.912 26.55 928.706 27.683 L 929.935 25.739 Z M 922.773 22.972 L 923.242 20.72 C 920.458 20.14 917.423 19.858 914.146 19.858 L 914.146 22.158 L 914.146 24.458 C 917.163 24.458 919.878 24.718 922.304 25.223 L 922.773 22.972 Z M 914.146 22.158 L 914.146 19.858 C 911.921 19.858 909.701 20.092 907.487 20.558 L 907.961 22.809 L 908.434 25.06 C 910.344 24.658 912.247 24.458 914.146 24.458 L 914.146 22.158 Z M 907.961 22.809 L 907.487 20.558 C 905.169 21.046 903.016 21.905 901.045 23.137 L 902.264 25.088 L 903.483 27.038 C 904.983 26.1 906.629 25.44 908.434 25.06 L 907.961 22.809 Z M 902.264 25.088 L 900.988 23.174 C 899.107 24.428 897.534 26.001 896.281 27.881 L 898.194 29.157 L 900.108 30.433 C 901.025 29.058 902.164 27.918 903.539 27.001 L 902.264 25.088 Z M 898.194 29.157 L 896.281 27.881 C 894.882 29.979 894.267 32.517 894.267 35.342 L 896.567 35.342 L 898.867 35.342 C 898.867 33.176 899.336 31.591 900.108 30.433 L 898.194 29.157 Z M 896.567 35.342 L 894.267 35.342 C 894.267 37.893 894.75 40.197 895.91 42.082 L 897.869 40.877 L 899.828 39.671 C 899.251 38.735 898.867 37.349 898.867 35.342 L 896.567 35.342 Z M 897.869 40.877 L 895.91 42.082 C 897.118 44.045 899.267 45.588 901.922 46.858 L 902.915 44.783 L 903.907 42.708 C 901.571 41.591 900.356 40.529 899.828 39.671 L 897.869 40.877 Z M 902.915 44.783 L 901.956 46.874 C 904.726 48.143 908.39 49.376 912.899 50.585 L 913.495 48.364 L 914.091 46.143 C 909.701 44.965 906.312 43.81 903.873 42.692 L 902.915 44.783 Z M 913.495 48.364 L 912.912 50.589 C 917.478 51.785 923.398 53.305 930.671 55.151 L 931.237 52.922 L 931.802 50.692 C 924.535 48.848 918.627 47.331 914.077 46.139 L 913.495 48.364 Z M 931.237 52.922 L 930.786 55.177 C 932.836 55.587 935.729 56.372 939.499 57.557 L 940.189 55.363 L 940.879 53.169 C 937.054 51.967 933.978 51.124 931.688 50.666 L 931.237 52.922 Z M 940.189 55.363 L 939.573 57.579 C 943.224 58.593 946.86 60.276 950.483 62.656 L 951.746 60.734 L 953.009 58.812 C 949.035 56.201 944.967 54.303 940.805 53.147 L 940.189 55.363 Z M 951.746 60.734 L 950.483 62.656 C 953.984 64.957 957.018 68.078 959.576 72.067 L 961.512 70.826 L 963.448 69.585 C 960.58 65.11 957.104 61.503 953.009 58.812 L 951.746 60.734 Z M 961.512 70.826 L 959.614 72.125 C 962.105 75.765 963.444 80.591 963.444 86.778 L 965.744 86.778 L 968.044 86.778 C 968.044 79.942 966.562 74.134 963.41 69.527 L 961.512 70.826 Z M 965.744 86.778 L 963.444 86.778 C 963.444 91.789 962.474 96.401 960.556 100.642 L 962.651 101.59 L 964.747 102.538 C 966.952 97.664 968.044 92.401 968.044 86.778 L 965.744 86.778 Z M 962.651 101.59 L 960.556 100.642 C 958.65 104.855 955.786 108.536 951.92 111.69 L 953.373 113.472 L 954.827 115.254 C 959.208 111.68 962.529 107.44 964.747 102.538 L 962.651 101.59 Z M 953.373 113.472 L 951.925 111.685 C 948.187 114.716 943.423 117.144 937.568 118.921 L 938.236 121.122 L 938.904 123.323 C 945.202 121.411 950.53 118.739 954.822 115.259 L 953.373 113.472 Z M 938.236 121.122 L 937.557 118.925 C 931.858 120.686 925.151 121.589 917.401 121.589 L 917.401 123.889 L 917.401 126.189 C 925.494 126.189 932.677 125.248 938.915 123.32 L 938.236 121.122 Z M 917.401 123.889 L 917.401 121.589 C 911.196 121.589 905.157 120.801 899.278 119.226 L 898.683 121.448 L 898.087 123.669 C 904.362 125.35 910.802 126.189 917.401 126.189 L 917.401 123.889 Z M 898.683 121.448 L 899.25 119.219 C 893.541 117.766 888.492 115.441 884.076 112.257 L 882.731 114.123 L 881.386 115.989 C 886.302 119.533 891.887 122.091 898.115 123.677 L 898.683 121.448 Z M 882.731 114.123 L 884.097 112.273 C 879.832 109.124 876.423 105.112 873.865 100.202 L 871.825 101.264 L 869.786 102.327 C 872.654 107.834 876.515 112.394 881.365 115.974 L 882.731 114.123 Z M 871.825 101.264 L 873.865 100.202 C 871.364 95.398 870.115 89.607 870.219 82.743 L 867.919 82.708 L 865.619 82.674 C 865.506 90.134 866.862 96.713 869.786 102.327 L 871.825 101.264 Z M 867.919 82.708 L 867.919 85.008 L 892.66 85.008 L 892.66 82.708 L 892.66 80.408 L 867.919 80.408 L 867.919 82.708 Z" fill="currentColor" fill-rule="nonzero"></path>
</svg>