<svg width="1009" height="327" viewBox="0 0 1009 327" fill="none" xmlns="http://www.w3.org/2000/svg">
<g clip-path="url(#clip0_54_2)">
<mask id="path-1-outside-1_54_2" maskUnits="userSpaceOnUse" x="26" y="40" width="969" height="127" fill="black">
<rect fill="white" x="26" y="40" width="969" height="127"/>
<path d="M111.71 84.8468C111.276 81.9169 110.299 79.2583 108.78 76.871C107.261 74.3752 105.362 72.2049 103.083 70.3602C100.804 68.5155 98.2 67.1048 95.2701 66.1282C92.4488 65.043 89.4646 64.5005 86.3177 64.5005C80.5665 64.5005 75.6834 65.6399 71.6684 67.9186C67.6534 70.0889 64.398 73.073 61.9022 76.871C59.4063 80.5605 57.5616 84.7925 56.368 89.5671C55.2828 94.3417 54.7403 99.2791 54.7403 104.379C54.7403 109.262 55.2828 114.037 56.368 118.703C57.5616 123.261 59.4063 127.384 61.9022 131.074C64.398 134.763 67.6534 137.747 71.6684 140.026C75.6834 142.196 80.5665 143.281 86.3177 143.281C94.1307 143.281 100.207 140.894 104.548 136.119C108.997 131.345 111.71 125.051 112.687 117.238H137.428C136.777 124.509 135.095 131.074 132.382 136.933C129.669 142.793 126.088 147.785 121.639 151.908C117.19 156.032 111.981 159.179 106.013 161.349C100.045 163.519 93.4796 164.604 86.3177 164.604C77.4196 164.604 69.3896 163.085 62.2277 160.047C55.1743 156.9 49.2061 152.614 44.3229 147.188C39.4398 141.762 35.6961 135.414 33.0918 128.144C30.4874 120.765 29.1853 112.843 29.1853 104.379C29.1853 95.6981 30.4874 87.6681 33.0918 80.2892C35.6961 72.8018 39.4398 66.2909 44.3229 60.7567C49.2061 55.2225 55.1743 50.882 62.2277 47.7351C69.3896 44.5882 77.4196 43.0148 86.3177 43.0148C92.72 43.0148 98.7425 43.9371 104.385 45.7818C110.136 47.6266 115.237 50.3394 119.686 53.9204C124.243 57.3928 127.987 61.7334 130.917 66.942C133.847 72.1507 135.691 78.1189 136.451 84.8468H111.71ZM180.433 98.3567H208.43C214.29 98.3567 218.684 97.0546 221.614 94.4502C224.544 91.8459 226.009 87.6139 226.009 81.7541C226.009 76.1114 224.544 72.0422 221.614 69.5463C218.684 66.942 214.29 65.6399 208.43 65.6399H180.433V98.3567ZM154.878 45.7818H217.545C222.754 45.7818 227.42 46.65 231.543 48.3862C235.775 50.0139 239.356 52.2927 242.286 55.2225C245.325 58.1524 247.603 61.5706 249.123 65.4771C250.75 69.2751 251.564 73.3986 251.564 77.8476C251.564 84.684 250.099 90.598 247.169 95.5896C244.348 100.581 239.682 104.379 233.171 106.984V107.309C236.318 108.177 238.922 109.534 240.984 111.378C243.046 113.115 244.728 115.231 246.03 117.726C247.332 120.114 248.254 122.772 248.797 125.702C249.448 128.632 249.882 131.562 250.099 134.492C250.208 136.337 250.316 138.507 250.425 141.003C250.533 143.498 250.696 146.048 250.913 148.653C251.239 151.257 251.673 153.753 252.215 156.14C252.866 158.419 253.789 160.372 254.982 162H229.427C228.017 158.311 227.149 153.916 226.823 148.816C226.497 143.715 226.009 138.832 225.358 134.166C224.49 128.089 222.645 123.64 219.824 120.819C217.003 117.998 212.391 116.587 205.988 116.587H180.433V162H154.878V45.7818ZM272.347 45.7818H297.902V162H272.347V45.7818ZM349.65 117.075H379.762L365.113 74.4295H364.788L349.65 117.075ZM352.091 45.7818H378.297L421.757 162H395.226L386.436 136.119H342.976L333.861 162H308.143L352.091 45.7818ZM457.334 140.514H480.122C483.811 140.514 487.392 139.917 490.865 138.724C494.337 137.53 497.43 135.577 500.143 132.864C502.856 130.043 505.026 126.408 506.653 121.958C508.281 117.509 509.095 112.084 509.095 105.681C509.095 99.8217 508.498 94.5588 507.305 89.8927C506.219 85.1181 504.375 81.0488 501.77 77.6849C499.166 74.321 495.694 71.7709 491.353 70.0347C487.121 68.1899 481.858 67.2676 475.564 67.2676H457.334V140.514ZM431.779 45.7818H481.912C489.4 45.7818 496.345 46.9755 502.747 49.3628C509.258 51.7501 514.846 55.3311 519.512 60.1057C524.287 64.8803 527.976 70.8485 530.581 78.0104C533.294 85.1723 534.65 93.5821 534.65 103.24C534.65 111.704 533.565 119.517 531.395 126.679C529.224 133.841 525.915 140.026 521.466 145.235C517.125 150.443 511.645 154.567 505.026 157.605C498.515 160.535 490.81 162 481.912 162H431.779V45.7818ZM572.935 104.379C572.935 109.262 573.478 114.037 574.563 118.703C575.757 123.261 577.602 127.384 580.097 131.074C582.593 134.763 585.849 137.747 589.864 140.026C593.879 142.196 598.762 143.281 604.513 143.281C610.264 143.281 615.147 142.196 619.162 140.026C623.177 137.747 626.433 134.763 628.928 131.074C631.424 127.384 633.215 123.261 634.3 118.703C635.494 114.037 636.09 109.262 636.09 104.379C636.09 99.2791 635.494 94.3417 634.3 89.5671C633.215 84.7925 631.424 80.5605 628.928 76.871C626.433 73.073 623.177 70.0889 619.162 67.9186C615.147 65.6399 610.264 64.5005 604.513 64.5005C598.762 64.5005 593.879 65.6399 589.864 67.9186C585.849 70.0889 582.593 73.073 580.097 76.871C577.602 80.5605 575.757 84.7925 574.563 89.5671C573.478 94.3417 572.935 99.2791 572.935 104.379ZM547.38 104.379C547.38 95.6981 548.683 87.6681 551.287 80.2892C553.891 72.8018 557.635 66.2909 562.518 60.7567C567.401 55.2225 573.369 50.882 580.423 47.7351C587.585 44.5882 595.615 43.0148 604.513 43.0148C613.52 43.0148 621.55 44.5882 628.603 47.7351C635.656 50.882 641.625 55.2225 646.508 60.7567C651.391 66.2909 655.135 72.8018 657.739 80.2892C660.343 87.6681 661.645 95.6981 661.645 104.379C661.645 112.843 660.343 120.765 657.739 128.144C655.135 135.414 651.391 141.762 646.508 147.188C641.625 152.614 635.656 156.9 628.603 160.047C621.55 163.085 613.52 164.604 604.513 164.604C595.615 164.604 587.585 163.085 580.423 160.047C573.369 156.9 567.401 152.614 562.518 147.188C557.635 141.762 553.891 135.414 551.287 128.144C548.683 120.765 547.38 112.843 547.38 104.379ZM704.669 98.3567H732.665C738.525 98.3567 742.92 97.0546 745.85 94.4502C748.78 91.8459 750.245 87.6139 750.245 81.7541C750.245 76.1114 748.78 72.0422 745.85 69.5463C742.92 66.942 738.525 65.6399 732.665 65.6399H704.669V98.3567ZM679.114 45.7818H741.781C746.989 45.7818 751.655 46.65 755.779 48.3862C760.011 50.0139 763.592 52.2927 766.522 55.2225C769.56 58.1524 771.839 61.5706 773.358 65.4771C774.986 69.2751 775.8 73.3986 775.8 77.8476C775.8 84.684 774.335 90.598 771.405 95.5896C768.583 100.581 763.917 104.379 757.407 106.984V107.309C760.553 108.177 763.158 109.534 765.22 111.378C767.281 113.115 768.963 115.231 770.265 117.726C771.568 120.114 772.49 122.772 773.033 125.702C773.684 128.632 774.118 131.562 774.335 134.492C774.443 136.337 774.552 138.507 774.66 141.003C774.769 143.498 774.931 146.048 775.149 148.653C775.474 151.257 775.908 153.753 776.451 156.14C777.102 158.419 778.024 160.372 779.218 162H753.663C752.252 158.311 751.384 153.916 751.058 148.816C750.733 143.715 750.245 138.832 749.594 134.166C748.725 128.089 746.881 123.64 744.059 120.819C741.238 117.998 736.626 116.587 730.224 116.587H704.669V162H679.114V45.7818ZM796.582 45.7818H883.502V67.2676H822.137V92.1714H878.456V112.029H822.137V140.514H884.804V162H796.582V45.7818ZM919.545 123.423C919.545 127.33 920.25 130.64 921.661 133.352C923.072 136.065 924.916 138.29 927.195 140.026C929.583 141.654 932.35 142.902 935.497 143.77C938.643 144.529 941.899 144.909 945.263 144.909C947.542 144.909 949.983 144.746 952.587 144.421C955.192 143.987 957.633 143.227 959.912 142.142C962.191 141.057 964.09 139.592 965.609 137.747C967.128 135.794 967.888 133.352 967.888 130.423C967.888 127.276 966.857 124.726 964.795 122.772C962.842 120.819 960.238 119.191 956.982 117.889C953.727 116.587 950.037 115.448 945.914 114.471C941.79 113.494 937.613 112.409 933.381 111.216C929.04 110.13 924.808 108.828 920.684 107.309C916.561 105.681 912.871 103.62 909.616 101.124C906.361 98.628 903.702 95.5354 901.64 91.8459C899.687 88.0479 898.71 83.4904 898.71 78.1732C898.71 72.2049 899.958 67.0505 902.454 62.71C905.058 58.2609 908.422 54.5715 912.546 51.6416C916.669 48.7117 921.336 46.5414 926.544 45.1308C931.753 43.7201 936.962 43.0148 942.17 43.0148C948.247 43.0148 954.052 43.7201 959.587 45.1308C965.229 46.4329 970.221 48.6032 974.562 51.6416C978.902 54.68 982.32 58.5865 984.816 63.3611C987.42 68.0272 988.723 73.7241 988.723 80.452H963.981C963.764 76.9795 963.005 74.1039 961.703 71.8251C960.509 69.5463 958.881 67.7559 956.82 66.4537C954.758 65.1515 952.37 64.2292 949.658 63.6866C947.053 63.144 944.178 62.8728 941.031 62.8728C938.969 62.8728 936.907 63.0898 934.845 63.5238C932.784 63.9579 930.885 64.7175 929.149 65.8026C927.521 66.8878 926.164 68.2442 925.079 69.8719C923.994 71.4996 923.452 73.5614 923.452 76.0572C923.452 78.336 923.886 80.1807 924.754 81.5914C925.622 83.002 927.304 84.3042 929.8 85.4979C932.404 86.6915 935.931 87.8852 940.38 89.0788C944.937 90.2725 950.851 91.7917 958.122 93.6364C960.292 94.0704 963.276 94.8843 967.074 96.0779C970.981 97.1631 974.833 98.9536 978.631 101.449C982.429 103.945 985.684 107.309 988.397 111.541C991.218 115.665 992.629 120.982 992.629 127.493C992.629 132.81 991.598 137.747 989.536 142.305C987.475 146.862 984.382 150.823 980.258 154.187C976.243 157.442 971.198 159.992 965.121 161.837C959.153 163.682 952.208 164.604 944.286 164.604C937.884 164.604 931.644 163.79 925.568 162.163C919.599 160.644 914.282 158.202 909.616 154.838C905.058 151.474 901.423 147.188 898.71 141.979C895.998 136.771 894.695 130.585 894.804 123.423H919.545Z"/>
</mask>
<path d="M111.71 84.8468C111.276 81.9169 110.299 79.2583 108.78 76.871C107.261 74.3752 105.362 72.2049 103.083 70.3602C100.804 68.5155 98.2 67.1048 95.2701 66.1282C92.4488 65.043 89.4646 64.5005 86.3177 64.5005C80.5665 64.5005 75.6834 65.6399 71.6684 67.9186C67.6534 70.0889 64.398 73.073 61.9022 76.871C59.4063 80.5605 57.5616 84.7925 56.368 89.5671C55.2828 94.3417 54.7403 99.2791 54.7403 104.379C54.7403 109.262 55.2828 114.037 56.368 118.703C57.5616 123.261 59.4063 127.384 61.9022 131.074C64.398 134.763 67.6534 137.747 71.6684 140.026C75.6834 142.196 80.5665 143.281 86.3177 143.281C94.1307 143.281 100.207 140.894 104.548 136.119C108.997 131.345 111.71 125.051 112.687 117.238H137.428C136.777 124.509 135.095 131.074 132.382 136.933C129.669 142.793 126.088 147.785 121.639 151.908C117.19 156.032 111.981 159.179 106.013 161.349C100.045 163.519 93.4796 164.604 86.3177 164.604C77.4196 164.604 69.3896 163.085 62.2277 160.047C55.1743 156.9 49.2061 152.614 44.3229 147.188C39.4398 141.762 35.6961 135.414 33.0918 128.144C30.4874 120.765 29.1853 112.843 29.1853 104.379C29.1853 95.6981 30.4874 87.6681 33.0918 80.2892C35.6961 72.8018 39.4398 66.2909 44.3229 60.7567C49.2061 55.2225 55.1743 50.882 62.2277 47.7351C69.3896 44.5882 77.4196 43.0148 86.3177 43.0148C92.72 43.0148 98.7425 43.9371 104.385 45.7818C110.136 47.6266 115.237 50.3394 119.686 53.9204C124.243 57.3928 127.987 61.7334 130.917 66.942C133.847 72.1507 135.691 78.1189 136.451 84.8468H111.71ZM180.433 98.3567H208.43C214.29 98.3567 218.684 97.0546 221.614 94.4502C224.544 91.8459 226.009 87.6139 226.009 81.7541C226.009 76.1114 224.544 72.0422 221.614 69.5463C218.684 66.942 214.29 65.6399 208.43 65.6399H180.433V98.3567ZM154.878 45.7818H217.545C222.754 45.7818 227.42 46.65 231.543 48.3862C235.775 50.0139 239.356 52.2927 242.286 55.2225C245.325 58.1524 247.603 61.5706 249.123 65.4771C250.75 69.2751 251.564 73.3986 251.564 77.8476C251.564 84.684 250.099 90.598 247.169 95.5896C244.348 100.581 239.682 104.379 233.171 106.984V107.309C236.318 108.177 238.922 109.534 240.984 111.378C243.046 113.115 244.728 115.231 246.03 117.726C247.332 120.114 248.254 122.772 248.797 125.702C249.448 128.632 249.882 131.562 250.099 134.492C250.208 136.337 250.316 138.507 250.425 141.003C250.533 143.498 250.696 146.048 250.913 148.653C251.239 151.257 251.673 153.753 252.215 156.14C252.866 158.419 253.789 160.372 254.982 162H229.427C228.017 158.311 227.149 153.916 226.823 148.816C226.497 143.715 226.009 138.832 225.358 134.166C224.49 128.089 222.645 123.64 219.824 120.819C217.003 117.998 212.391 116.587 205.988 116.587H180.433V162H154.878V45.7818ZM272.347 45.7818H297.902V162H272.347V45.7818ZM349.65 117.075H379.762L365.113 74.4295H364.788L349.65 117.075ZM352.091 45.7818H378.297L421.757 162H395.226L386.436 136.119H342.976L333.861 162H308.143L352.091 45.7818ZM457.334 140.514H480.122C483.811 140.514 487.392 139.917 490.865 138.724C494.337 137.53 497.43 135.577 500.143 132.864C502.856 130.043 505.026 126.408 506.653 121.958C508.281 117.509 509.095 112.084 509.095 105.681C509.095 99.8217 508.498 94.5588 507.305 89.8927C506.219 85.1181 504.375 81.0488 501.77 77.6849C499.166 74.321 495.694 71.7709 491.353 70.0347C487.121 68.1899 481.858 67.2676 475.564 67.2676H457.334V140.514ZM431.779 45.7818H481.912C489.4 45.7818 496.345 46.9755 502.747 49.3628C509.258 51.7501 514.846 55.3311 519.512 60.1057C524.287 64.8803 527.976 70.8485 530.581 78.0104C533.294 85.1723 534.65 93.5821 534.65 103.24C534.65 111.704 533.565 119.517 531.395 126.679C529.224 133.841 525.915 140.026 521.466 145.235C517.125 150.443 511.645 154.567 505.026 157.605C498.515 160.535 490.81 162 481.912 162H431.779V45.7818ZM572.935 104.379C572.935 109.262 573.478 114.037 574.563 118.703C575.757 123.261 577.602 127.384 580.097 131.074C582.593 134.763 585.849 137.747 589.864 140.026C593.879 142.196 598.762 143.281 604.513 143.281C610.264 143.281 615.147 142.196 619.162 140.026C623.177 137.747 626.433 134.763 628.928 131.074C631.424 127.384 633.215 123.261 634.3 118.703C635.494 114.037 636.09 109.262 636.09 104.379C636.09 99.2791 635.494 94.3417 634.3 89.5671C633.215 84.7925 631.424 80.5605 628.928 76.871C626.433 73.073 623.177 70.0889 619.162 67.9186C615.147 65.6399 610.264 64.5005 604.513 64.5005C598.762 64.5005 593.879 65.6399 589.864 67.9186C585.849 70.0889 582.593 73.073 580.097 76.871C577.602 80.5605 575.757 84.7925 574.563 89.5671C573.478 94.3417 572.935 99.2791 572.935 104.379ZM547.38 104.379C547.38 95.6981 548.683 87.6681 551.287 80.2892C553.891 72.8018 557.635 66.2909 562.518 60.7567C567.401 55.2225 573.369 50.882 580.423 47.7351C587.585 44.5882 595.615 43.0148 604.513 43.0148C613.52 43.0148 621.55 44.5882 628.603 47.7351C635.656 50.882 641.625 55.2225 646.508 60.7567C651.391 66.2909 655.135 72.8018 657.739 80.2892C660.343 87.6681 661.645 95.6981 661.645 104.379C661.645 112.843 660.343 120.765 657.739 128.144C655.135 135.414 651.391 141.762 646.508 147.188C641.625 152.614 635.656 156.9 628.603 160.047C621.55 163.085 613.52 164.604 604.513 164.604C595.615 164.604 587.585 163.085 580.423 160.047C573.369 156.9 567.401 152.614 562.518 147.188C557.635 141.762 553.891 135.414 551.287 128.144C548.683 120.765 547.38 112.843 547.38 104.379ZM704.669 98.3567H732.665C738.525 98.3567 742.92 97.0546 745.85 94.4502C748.78 91.8459 750.245 87.6139 750.245 81.7541C750.245 76.1114 748.78 72.0422 745.85 69.5463C742.92 66.942 738.525 65.6399 732.665 65.6399H704.669V98.3567ZM679.114 45.7818H741.781C746.989 45.7818 751.655 46.65 755.779 48.3862C760.011 50.0139 763.592 52.2927 766.522 55.2225C769.56 58.1524 771.839 61.5706 773.358 65.4771C774.986 69.2751 775.8 73.3986 775.8 77.8476C775.8 84.684 774.335 90.598 771.405 95.5896C768.583 100.581 763.917 104.379 757.407 106.984V107.309C760.553 108.177 763.158 109.534 765.22 111.378C767.281 113.115 768.963 115.231 770.265 117.726C771.568 120.114 772.49 122.772 773.033 125.702C773.684 128.632 774.118 131.562 774.335 134.492C774.443 136.337 774.552 138.507 774.66 141.003C774.769 143.498 774.931 146.048 775.149 148.653C775.474 151.257 775.908 153.753 776.451 156.14C777.102 158.419 778.024 160.372 779.218 162H753.663C752.252 158.311 751.384 153.916 751.058 148.816C750.733 143.715 750.245 138.832 749.594 134.166C748.725 128.089 746.881 123.64 744.059 120.819C741.238 117.998 736.626 116.587 730.224 116.587H704.669V162H679.114V45.7818ZM796.582 45.7818H883.502V67.2676H822.137V92.1714H878.456V112.029H822.137V140.514H884.804V162H796.582V45.7818ZM919.545 123.423C919.545 127.33 920.25 130.64 921.661 133.352C923.072 136.065 924.916 138.29 927.195 140.026C929.583 141.654 932.35 142.902 935.497 143.77C938.643 144.529 941.899 144.909 945.263 144.909C947.542 144.909 949.983 144.746 952.587 144.421C955.192 143.987 957.633 143.227 959.912 142.142C962.191 141.057 964.09 139.592 965.609 137.747C967.128 135.794 967.888 133.352 967.888 130.423C967.888 127.276 966.857 124.726 964.795 122.772C962.842 120.819 960.238 119.191 956.982 117.889C953.727 116.587 950.037 115.448 945.914 114.471C941.79 113.494 937.613 112.409 933.381 111.216C929.04 110.13 924.808 108.828 920.684 107.309C916.561 105.681 912.871 103.62 909.616 101.124C906.361 98.628 903.702 95.5354 901.64 91.8459C899.687 88.0479 898.71 83.4904 898.71 78.1732C898.71 72.2049 899.958 67.0505 902.454 62.71C905.058 58.2609 908.422 54.5715 912.546 51.6416C916.669 48.7117 921.336 46.5414 926.544 45.1308C931.753 43.7201 936.962 43.0148 942.17 43.0148C948.247 43.0148 954.052 43.7201 959.587 45.1308C965.229 46.4329 970.221 48.6032 974.562 51.6416C978.902 54.68 982.32 58.5865 984.816 63.3611C987.42 68.0272 988.723 73.7241 988.723 80.452H963.981C963.764 76.9795 963.005 74.1039 961.703 71.8251C960.509 69.5463 958.881 67.7559 956.82 66.4537C954.758 65.1515 952.37 64.2292 949.658 63.6866C947.053 63.144 944.178 62.8728 941.031 62.8728C938.969 62.8728 936.907 63.0898 934.845 63.5238C932.784 63.9579 930.885 64.7175 929.149 65.8026C927.521 66.8878 926.164 68.2442 925.079 69.8719C923.994 71.4996 923.452 73.5614 923.452 76.0572C923.452 78.336 923.886 80.1807 924.754 81.5914C925.622 83.002 927.304 84.3042 929.8 85.4979C932.404 86.6915 935.931 87.8852 940.38 89.0788C944.937 90.2725 950.851 91.7917 958.122 93.6364C960.292 94.0704 963.276 94.8843 967.074 96.0779C970.981 97.1631 974.833 98.9536 978.631 101.449C982.429 103.945 985.684 107.309 988.397 111.541C991.218 115.665 992.629 120.982 992.629 127.493C992.629 132.81 991.598 137.747 989.536 142.305C987.475 146.862 984.382 150.823 980.258 154.187C976.243 157.442 971.198 159.992 965.121 161.837C959.153 163.682 952.208 164.604 944.286 164.604C937.884 164.604 931.644 163.79 925.568 162.163C919.599 160.644 914.282 158.202 909.616 154.838C905.058 151.474 901.423 147.188 898.71 141.979C895.998 136.771 894.695 130.585 894.804 123.423H919.545Z" fill="white"/>
<path d="M111.71 84.8468L109.435 85.1838L109.726 87.1468H111.71V84.8468ZM108.78 76.871L106.815 78.0669L106.827 78.0865L106.84 78.1058L108.78 76.871ZM95.2701 66.1282L94.4445 68.2749L94.4932 68.2936L94.5428 68.3101L95.2701 66.1282ZM71.6684 67.9186L72.7621 69.942L72.783 69.9307L72.8037 69.9189L71.6684 67.9186ZM61.9022 76.871L63.8072 78.1597L63.8158 78.147L63.8243 78.1341L61.9022 76.871ZM56.368 89.5671L54.1366 89.0093L54.1306 89.0333L54.1252 89.0574L56.368 89.5671ZM56.368 118.703L54.1277 119.224L54.1349 119.255L54.143 119.286L56.368 118.703ZM61.9022 131.074L59.9971 132.362V132.362L61.9022 131.074ZM71.6684 140.026L70.5331 142.026L70.5538 142.038L70.5747 142.049L71.6684 140.026ZM104.548 136.119L102.865 134.552L102.856 134.562L102.846 134.572L104.548 136.119ZM112.687 117.238V114.938H110.656L110.404 116.953L112.687 117.238ZM137.428 117.238L139.718 117.443L139.943 114.938H137.428V117.238ZM132.382 136.933L134.469 137.9V137.9L132.382 136.933ZM121.639 151.908L120.075 150.221V150.221L121.639 151.908ZM106.013 161.349L106.799 163.51V163.51L106.013 161.349ZM62.2277 160.047L61.2906 162.147L61.3099 162.156L61.3294 162.164L62.2277 160.047ZM44.3229 147.188L46.0325 145.649V145.649L44.3229 147.188ZM33.0918 128.144L30.9229 128.909L30.9265 128.919L33.0918 128.144ZM33.0918 80.2892L35.2607 81.0547L35.2641 81.0448L33.0918 80.2892ZM44.3229 60.7567L46.0476 62.2785V62.2785L44.3229 60.7567ZM62.2277 47.7351L61.3025 45.6294L61.2906 45.6347L62.2277 47.7351ZM104.385 45.7819L103.671 47.968L103.683 47.9719L104.385 45.7819ZM119.686 53.9204L118.244 55.7121L118.267 55.7313L118.292 55.7499L119.686 53.9204ZM130.917 66.942L132.921 65.8144V65.8144L130.917 66.942ZM136.451 84.8468V87.1468H139.025L138.737 84.5887L136.451 84.8468ZM111.71 84.8468L113.985 84.5097C113.506 81.2757 112.421 78.3086 110.72 75.6362L108.78 76.871L106.84 78.1058C108.177 80.208 109.046 82.5582 109.435 85.1838L111.71 84.8468ZM108.78 76.871L110.745 75.6751C109.088 72.953 107.013 70.5828 104.53 68.5725L103.083 70.3602L101.636 72.1479C103.71 73.8271 105.434 75.7974 106.815 78.0669L108.78 76.871ZM103.083 70.3602L104.53 68.5725C102.026 66.5452 99.1748 65.0053 95.9974 63.9462L95.2701 66.1282L94.5428 68.3101C97.2251 69.2042 99.5828 70.4858 101.636 72.1479L103.083 70.3602ZM95.2701 66.1282L96.0958 63.9815C93.0002 62.7909 89.7352 62.2005 86.3177 62.2005V64.5005V66.8005C89.1941 66.8005 91.8973 67.2952 94.4445 68.2749L95.2701 66.1282ZM86.3177 64.5005V62.2005C80.2651 62.2005 74.9695 63.4004 70.5331 65.9184L71.6684 67.9186L72.8037 69.9189C76.3973 67.8793 80.8679 66.8005 86.3177 66.8005V64.5005ZM71.6684 67.9186L70.5747 65.8953C66.2264 68.2458 62.6858 71.4905 59.98 75.6079L61.9022 76.871L63.8243 78.1341C66.1102 74.6556 69.0804 71.9321 72.7621 69.942L71.6684 67.9186ZM61.9022 76.871L59.9971 75.5823C57.3357 79.5166 55.3887 84.0011 54.1366 89.0093L56.368 89.5671L58.5993 90.125C59.7345 85.5839 61.477 81.6044 63.8072 78.1597L61.9022 76.871ZM56.368 89.5671L54.1252 89.0574C53.0005 94.0061 52.4403 99.1147 52.4403 104.379H54.7402H57.0402C57.0402 99.4435 57.5652 94.6774 58.6108 90.0769L56.368 89.5671ZM54.7402 104.379H52.4403C52.4403 109.434 53.0021 114.384 54.1277 119.224L56.368 118.703L58.6082 118.182C57.5635 113.69 57.0402 109.09 57.0402 104.379H54.7402ZM56.368 118.703L54.143 119.286C55.3988 124.08 57.3472 128.445 59.9971 132.362L61.9022 131.074L63.8072 129.785C61.4654 126.323 59.7245 122.441 58.5929 118.12L56.368 118.703ZM61.9022 131.074L59.9971 132.362C62.6986 136.356 66.2217 139.579 70.5331 142.026L71.6684 140.026L72.8037 138.026C69.085 135.915 66.0973 133.17 63.8072 129.785L61.9022 131.074ZM71.6684 140.026L70.5747 142.049C75.002 144.442 80.282 145.581 86.3177 145.581V143.281V140.981C80.851 140.981 76.3648 139.95 72.7621 138.003L71.6684 140.026ZM86.3177 143.281V145.581C94.6307 145.581 101.383 143.02 106.25 137.667L104.548 136.119L102.846 134.572C99.0321 138.768 93.6308 140.981 86.3177 140.981V143.281ZM104.548 136.119L106.231 137.687C111.073 132.491 113.945 125.715 114.969 117.523L112.687 117.238L110.404 116.953C109.475 124.387 106.921 130.199 102.865 134.552L104.548 136.119ZM112.687 117.238V119.538H137.428V117.238V114.938H112.687V117.238ZM137.428 117.238L135.137 117.033C134.506 124.074 132.883 130.377 130.295 135.967L132.382 136.933L134.469 137.9C137.306 131.771 139.047 124.943 139.718 117.443L137.428 117.238ZM132.382 136.933L130.295 135.967C127.699 141.573 124.291 146.314 120.075 150.221L121.639 151.908L123.202 153.595C127.885 149.255 131.638 144.014 134.469 137.9L132.382 136.933ZM121.639 151.908L120.075 150.221C115.862 154.127 110.921 157.117 105.227 159.187L106.013 161.349L106.799 163.51C113.042 161.24 118.518 157.937 123.202 153.595L121.639 151.908ZM106.013 161.349L105.227 159.187C99.5407 161.255 93.2455 162.304 86.3177 162.304V164.604V166.904C93.7138 166.904 100.549 165.783 106.799 163.51L106.013 161.349ZM86.3177 164.604V162.304C77.6842 162.304 69.9658 160.831 63.126 157.929L62.2277 160.047L61.3294 162.164C68.8134 165.339 77.1551 166.904 86.3177 166.904V164.604ZM62.2277 160.047L63.1648 157.946C56.388 154.923 50.6879 150.822 46.0325 145.649L44.3229 147.188L42.6134 148.727C47.7242 154.405 53.9606 158.877 61.2906 162.147L62.2277 160.047ZM44.3229 147.188L46.0325 145.649C41.3609 140.459 37.7665 134.374 35.257 127.368L33.0918 128.144L30.9265 128.919C33.6257 136.455 37.5187 143.066 42.6134 148.727L44.3229 147.188ZM33.0918 128.144L35.2606 127.378C32.7499 120.265 31.4853 112.604 31.4853 104.379H29.1853H26.8853C26.8853 113.083 28.225 121.265 30.9229 128.909L33.0918 128.144ZM29.1853 104.379H31.4853C31.4853 95.9305 32.7521 88.1623 35.2606 81.0547L33.0918 80.2892L30.9229 79.5237C28.2228 87.1739 26.8853 95.4658 26.8853 104.379H29.1853ZM33.0918 80.2892L35.2641 81.0448C37.7777 73.8183 41.3763 67.5726 46.0476 62.2785L44.3229 60.7567L42.5983 59.235C37.5034 65.0093 33.6145 71.7852 30.9194 79.5336L33.0918 80.2892ZM44.3229 60.7567L46.0476 62.2785C50.7025 57.0028 56.398 52.8546 63.1648 49.8355L62.2277 47.7351L61.2906 45.6347C53.9506 48.9094 47.7096 53.4422 42.5983 59.235L44.3229 60.7567ZM62.2277 47.7351L63.1529 49.8408C69.9857 46.8385 77.6945 45.3148 86.3177 45.3148V43.0148V40.7148C77.1447 40.7148 68.7935 42.3379 61.3025 45.6294L62.2277 47.7351ZM86.3177 43.0148V45.3148C92.4963 45.3148 98.276 46.2044 103.671 47.968L104.385 45.7819L105.1 43.5957C99.2091 41.6699 92.9438 40.7148 86.3177 40.7148V43.0148ZM104.385 45.7819L103.683 47.9719C109.181 49.7354 114.027 52.3182 118.244 55.7121L119.686 53.9204L121.128 52.1286C116.446 48.3606 111.092 45.5177 105.088 43.5918L104.385 45.7819ZM119.686 53.9204L118.292 55.7499C122.589 59.0242 126.129 63.1221 128.912 68.0696L130.917 66.942L132.921 65.8144C129.845 60.3446 125.897 55.7614 121.08 52.0909L119.686 53.9204ZM130.917 66.942L128.912 68.0696C131.672 72.9767 133.436 78.6422 134.166 85.1048L136.451 84.8468L138.737 84.5887C137.947 77.5957 136.021 71.3246 132.921 65.8144L130.917 66.942ZM136.451 84.8468V82.5468H111.71V84.8468V87.1468H136.451V84.8468ZM180.433 98.3567H178.133V100.657H180.433V98.3567ZM221.614 69.5463L220.086 71.2654L220.104 71.2815L220.123 71.2972L221.614 69.5463ZM180.433 65.6399V63.3399H178.133V65.6399H180.433ZM154.878 45.7819V43.4818H152.578V45.7819H154.878ZM231.543 48.3862L230.651 50.5059L230.684 50.5199L230.718 50.5329L231.543 48.3862ZM242.286 55.2225L240.66 56.8489L240.675 56.8637L240.69 56.8782L242.286 55.2225ZM249.123 65.4771L246.979 66.3107L246.993 66.3472L247.009 66.3831L249.123 65.4771ZM247.169 95.5896L245.186 94.4254L245.176 94.4416L245.167 94.4579L247.169 95.5896ZM233.171 106.984L232.317 104.848L230.871 105.426V106.984H233.171ZM233.171 107.309H230.871V109.061L232.559 109.526L233.171 107.309ZM240.984 111.378L239.45 113.092L239.476 113.115L239.503 113.138L240.984 111.378ZM246.03 117.726L243.991 118.79L244.001 118.809L244.011 118.828L246.03 117.726ZM248.797 125.702L246.535 126.121L246.543 126.161L246.552 126.201L248.797 125.702ZM250.099 134.492L252.395 134.357L252.394 134.339L252.393 134.322L250.099 134.492ZM250.913 148.653L248.621 148.844L248.625 148.891L248.631 148.938L250.913 148.653ZM252.215 156.14L249.972 156.65L249.986 156.711L250.004 156.772L252.215 156.14ZM254.982 162V164.3H259.521L256.837 160.64L254.982 162ZM229.427 162L227.279 162.821L227.844 164.3H229.427V162ZM226.823 148.816L229.118 148.669V148.669L226.823 148.816ZM225.358 134.166L227.636 133.848L227.635 133.841L225.358 134.166ZM219.824 120.819L221.45 119.193V119.193L219.824 120.819ZM180.433 116.587V114.287H178.133V116.587H180.433ZM180.433 162V164.3H182.733V162H180.433ZM154.878 162H152.578V164.3H154.878V162ZM180.433 98.3567V100.657H208.43V98.3567V96.0567H180.433V98.3567ZM208.43 98.3567V100.657C214.582 100.657 219.625 99.2955 223.142 96.1693L221.614 94.4502L220.086 92.7312C217.744 94.8136 213.998 96.0567 208.43 96.0567V98.3567ZM221.614 94.4502L223.142 96.1693C226.764 92.95 228.309 87.9431 228.309 81.7541H226.009H223.709C223.709 87.2847 222.324 90.7419 220.086 92.7312L221.614 94.4502ZM226.009 81.7541H228.309C228.309 75.7589 226.751 70.9008 223.106 67.7955L221.614 69.5463L220.123 71.2972C222.337 73.1835 223.709 76.4639 223.709 81.7541H226.009ZM221.614 69.5463L223.142 67.8273C219.625 64.7011 214.582 63.3399 208.43 63.3399V65.6399V67.9399C213.998 67.9399 217.744 69.183 220.086 71.2654L221.614 69.5463ZM208.43 65.6399V63.3399H180.433V65.6399V67.9399H208.43V65.6399ZM180.433 65.6399H178.133V98.3567H180.433H182.733V65.6399H180.433ZM154.878 45.7819V48.0818H217.545V45.7819V43.4818H154.878V45.7819ZM217.545 45.7819V48.0818C222.497 48.0818 226.852 48.9066 230.651 50.5059L231.543 48.3862L232.436 46.2664C227.987 44.3933 223.011 43.4818 217.545 43.4818V45.7819ZM231.543 48.3862L230.718 50.5329C234.678 52.0561 237.978 54.1673 240.66 56.8489L242.286 55.2225L243.913 53.5962C240.734 50.4181 236.873 47.9717 232.369 46.2395L231.543 48.3862ZM242.286 55.2225L240.69 56.8782C243.49 59.5786 245.581 62.7168 246.979 66.3107L249.123 65.4771L251.266 64.6435C249.625 60.4243 247.159 56.7263 243.883 53.5669L242.286 55.2225ZM249.123 65.4771L247.009 66.3831C248.504 69.8734 249.264 73.6859 249.264 77.8476H251.564H253.864C253.864 73.1113 252.996 68.6768 251.237 64.5711L249.123 65.4771ZM251.564 77.8476H249.264C249.264 84.3494 247.874 89.846 245.186 94.4254L247.169 95.5896L249.153 96.7539C252.325 91.35 253.864 85.0186 253.864 77.8476H251.564ZM247.169 95.5896L245.167 94.4579C242.657 98.8994 238.454 102.393 232.317 104.848L233.171 106.984L234.025 109.119C240.91 106.365 246.039 102.263 249.172 96.7214L247.169 95.5896ZM233.171 106.984H230.871V107.309H233.171H235.471V106.984H233.171ZM233.171 107.309L232.559 109.526C235.426 110.317 237.697 111.523 239.45 113.092L240.984 111.378L242.518 109.664C240.148 107.544 237.21 106.038 233.783 105.092L233.171 107.309ZM240.984 111.378L239.503 113.138C241.325 114.672 242.821 116.548 243.991 118.79L246.03 117.726L248.069 116.663C246.634 113.913 244.767 111.557 242.466 109.619L240.984 111.378ZM246.03 117.726L244.011 118.828C245.186 120.982 246.033 123.407 246.535 126.121L248.797 125.702L251.059 125.283C250.476 122.137 249.478 119.245 248.049 116.625L246.03 117.726ZM248.797 125.702L246.552 126.201C247.179 129.025 247.597 131.845 247.805 134.662L250.099 134.492L252.393 134.322C252.168 131.279 251.717 128.239 251.042 125.203L248.797 125.702ZM250.099 134.492L247.803 134.627C247.911 136.457 248.019 138.615 248.127 141.103L250.425 141.003L252.723 140.903C252.614 138.399 252.505 136.216 252.395 134.357L250.099 134.492ZM250.425 141.003L248.127 141.103C248.237 143.63 248.402 146.211 248.621 148.844L250.913 148.653L253.205 148.462C252.99 145.886 252.83 143.367 252.723 140.903L250.425 141.003ZM250.913 148.653L248.631 148.938C248.965 151.613 249.412 154.184 249.972 156.65L252.215 156.14L254.458 155.631C253.933 153.322 253.512 150.902 253.195 148.368L250.913 148.653ZM252.215 156.14L250.004 156.772C250.717 159.268 251.747 161.478 253.128 163.36L254.982 162L256.837 160.64C255.83 159.266 255.016 157.57 254.427 155.508L252.215 156.14ZM254.982 162V159.7H229.427V162V164.3H254.982V162ZM229.427 162L231.576 161.179C230.268 157.758 229.433 153.602 229.118 148.669L226.823 148.816L224.528 148.962C224.864 154.229 225.765 158.863 227.279 162.821L229.427 162ZM226.823 148.816L229.118 148.669C228.789 143.516 228.296 138.576 227.636 133.848L225.358 134.166L223.08 134.484C223.723 139.089 224.206 143.915 224.528 148.962L226.823 148.816ZM225.358 134.166L227.635 133.841C226.732 127.521 224.768 122.51 221.45 119.193L219.824 120.819L218.198 122.445C220.523 124.771 222.248 128.658 223.081 134.492L225.358 134.166ZM219.824 120.819L221.45 119.193C217.999 115.741 212.646 114.287 205.988 114.287V116.587V118.887C212.135 118.887 216.006 120.254 218.198 122.445L219.824 120.819ZM205.988 116.587V114.287H180.433V116.587V118.887H205.988V116.587ZM180.433 116.587H178.133V162H180.433H182.733V116.587H180.433ZM180.433 162V159.7H154.878V162V164.3H180.433V162ZM154.878 162H157.178V45.7819H154.878H152.578V162H154.878ZM272.347 45.7819V43.4818H270.047V45.7819H272.347ZM297.902 45.7819H300.202V43.4818H297.902V45.7819ZM297.902 162V164.3H300.202V162H297.902ZM272.347 162H270.047V164.3H272.347V162ZM272.347 45.7819V48.0818H297.902V45.7819V43.4818H272.347V45.7819ZM297.902 45.7819H295.602V162H297.902H300.202V45.7819H297.902ZM297.902 162V159.7H272.347V162V164.3H297.902V162ZM272.347 162H274.647V45.7819H272.347H270.047V162H272.347ZM349.65 117.075L347.482 116.306L346.393 119.375H349.65V117.075ZM379.762 117.075V119.375H382.984L381.938 116.328L379.762 117.075ZM365.113 74.4295L367.288 73.6822L366.755 72.1295H365.113V74.4295ZM364.788 74.4295V72.1295H363.163L362.62 73.6601L364.788 74.4295ZM352.091 45.7819V43.4818H350.502L349.94 44.9683L352.091 45.7819ZM378.297 45.7819L380.452 44.9762L379.893 43.4818H378.297V45.7819ZM421.757 162V164.3H425.073L423.912 161.194L421.757 162ZM395.226 162L393.048 162.74L393.578 164.3H395.226V162ZM386.436 136.119L388.614 135.38L388.084 133.819H386.436V136.119ZM342.976 136.119V133.819H341.348L340.807 135.355L342.976 136.119ZM333.861 162V164.3H335.49L336.031 162.764L333.861 162ZM308.143 162L305.992 161.186L304.815 164.3H308.143V162ZM349.65 117.075V119.375H379.762V117.075V114.775H349.65V117.075ZM379.762 117.075L381.938 116.328L367.288 73.6822L365.113 74.4295L362.938 75.1767L377.587 117.823L379.762 117.075ZM365.113 74.4295V72.1295H364.788V74.4295V76.7295H365.113V74.4295ZM364.788 74.4295L362.62 73.6601L347.482 116.306L349.65 117.075L351.817 117.845L366.955 75.1988L364.788 74.4295ZM352.091 45.7819V48.0818H378.297V45.7819V43.4818H352.091V45.7819ZM378.297 45.7819L376.143 46.5874L419.603 162.806L421.757 162L423.912 161.194L380.452 44.9762L378.297 45.7819ZM421.757 162V159.7H395.226V162V164.3H421.757V162ZM395.226 162L397.403 161.26L388.614 135.38L386.436 136.119L384.258 136.859L393.048 162.74L395.226 162ZM386.436 136.119V133.819H342.976V136.119V138.419H386.436V136.119ZM342.976 136.119L340.807 135.355L331.692 161.236L333.861 162L336.031 162.764L345.146 136.884L342.976 136.119ZM333.861 162V159.7H308.143V162V164.3H333.861V162ZM308.143 162L310.295 162.814L354.243 46.5954L352.091 45.7819L349.94 44.9683L305.992 161.186L308.143 162ZM457.334 140.514H455.034V142.814H457.334V140.514ZM500.143 132.864L501.769 134.49L501.785 134.474L501.801 134.458L500.143 132.864ZM506.654 121.958L508.813 122.749V122.749L506.654 121.958ZM507.305 89.8927L505.062 90.4024L505.069 90.4326L505.076 90.4627L507.305 89.8927ZM501.77 77.6849L499.952 79.0929V79.0929L501.77 77.6849ZM491.353 70.0347L490.434 72.1431L490.466 72.1571L490.499 72.1702L491.353 70.0347ZM457.334 67.2676V64.9676H455.034V67.2676H457.334ZM431.779 45.7819V43.4818H429.479V45.7819H431.779ZM502.747 49.3628L501.943 51.5179L501.955 51.5222L502.747 49.3628ZM519.512 60.1057L517.867 61.7132L517.877 61.7227L517.886 61.732L519.512 60.1057ZM530.581 78.0104L528.419 78.7964L528.424 78.8108L528.43 78.8251L530.581 78.0104ZM531.395 126.679L533.596 127.346V127.346L531.395 126.679ZM521.466 145.235L519.717 143.741L519.708 143.751L519.699 143.762L521.466 145.235ZM505.026 157.605L505.97 159.703L505.977 159.699L505.985 159.696L505.026 157.605ZM431.779 162H429.479V164.3H431.779V162ZM457.334 140.514V142.814H480.122V140.514V138.214H457.334V140.514ZM480.122 140.514V142.814C484.065 142.814 487.898 142.176 491.612 140.899L490.865 138.724L490.117 136.549C486.886 137.659 483.558 138.214 480.122 138.214V140.514ZM490.865 138.724L491.612 140.899C495.431 139.586 498.82 137.439 501.769 134.49L500.143 132.864L498.516 131.238C496.039 133.715 493.244 135.474 490.117 136.549L490.865 138.724ZM500.143 132.864L501.801 134.458C504.776 131.364 507.099 127.436 508.813 122.749L506.654 121.958L504.493 121.168C502.953 125.379 500.935 128.722 498.485 131.27L500.143 132.864ZM506.654 121.958L508.813 122.749C510.56 117.975 511.395 112.265 511.395 105.681H509.095H506.795C506.795 111.903 506.002 117.044 504.493 121.168L506.654 121.958ZM509.095 105.681H511.395C511.395 99.6693 510.783 94.21 509.533 89.3226L507.305 89.8927L505.076 90.4627C506.213 94.9075 506.795 99.974 506.795 105.681H509.095ZM507.305 89.8927L509.547 89.3829C508.399 84.3308 506.427 79.9429 503.589 76.2769L501.77 77.6849L499.952 79.0929C502.322 82.1547 504.04 85.9053 505.062 90.4024L507.305 89.8927ZM501.77 77.6849L503.589 76.2769C500.709 72.5574 496.89 69.7721 492.207 67.8992L491.353 70.0347L490.499 72.1702C494.498 73.7696 497.623 76.0845 499.952 79.0929L501.77 77.6849ZM491.353 70.0347L492.272 67.9263C487.665 65.9181 482.066 64.9676 475.564 64.9676V67.2676V69.5676C481.65 69.5676 486.577 70.4617 490.434 72.1431L491.353 70.0347ZM475.564 67.2676V64.9676H457.334V67.2676V69.5676H475.564V67.2676ZM457.334 67.2676H455.034V140.514H457.334H459.634V67.2676H457.334ZM431.779 45.7819V48.0818H481.912V45.7819V43.4818H431.779V45.7819ZM481.912 45.7819V48.0818C489.152 48.0818 495.822 49.2352 501.943 51.5179L502.747 49.3628L503.551 47.2077C496.868 44.7158 489.648 43.4818 481.912 43.4818V45.7819ZM502.747 49.3628L501.955 51.5222C508.157 53.7962 513.45 57.1935 517.867 61.7132L519.512 60.1057L521.157 58.4981C516.242 53.4687 510.359 49.704 503.539 47.2034L502.747 49.3628ZM519.512 60.1057L517.886 61.732C522.394 66.2401 525.915 71.9096 528.419 78.7964L530.581 78.0104L532.742 77.2244C530.038 69.7874 526.18 63.5204 521.139 58.4793L519.512 60.1057ZM530.581 78.0104L528.43 78.8251C531.022 85.6687 532.35 93.7908 532.35 103.24H534.65H536.95C536.95 93.3734 535.565 84.6759 532.732 77.1957L530.581 78.0104ZM534.65 103.24H532.35C532.35 111.507 531.29 119.092 529.193 126.012L531.395 126.679L533.596 127.346C535.84 119.941 536.95 111.901 536.95 103.24H534.65ZM531.395 126.679L529.193 126.012C527.107 132.898 523.941 138.795 519.717 143.741L521.466 145.235L523.214 146.728C527.888 141.257 531.342 134.783 533.596 127.346L531.395 126.679ZM521.466 145.235L519.699 143.762C515.594 148.688 510.397 152.609 504.066 155.515L505.026 157.605L505.985 159.696C512.893 156.525 518.656 152.199 523.233 146.707L521.466 145.235ZM505.026 157.605L504.082 155.508C497.931 158.275 490.563 159.7 481.912 159.7V162V164.3C491.058 164.3 499.098 162.795 505.97 159.703L505.026 157.605ZM481.912 162V159.7H431.779V162V164.3H481.912V162ZM431.779 162H434.079V45.7819H431.779H429.479V162H431.779ZM574.563 118.703L572.323 119.224L572.33 119.255L572.338 119.286L574.563 118.703ZM580.097 131.074L578.192 132.362V132.362L580.097 131.074ZM589.864 140.026L588.728 142.026L588.749 142.038L588.77 142.049L589.864 140.026ZM619.162 140.026L620.256 142.049L620.277 142.038L620.298 142.026L619.162 140.026ZM628.928 131.074L627.023 129.785V129.785L628.928 131.074ZM634.3 118.703L632.072 118.133L632.067 118.152L632.062 118.17L634.3 118.703ZM634.3 89.5671L632.057 90.0769L632.063 90.101L632.069 90.125L634.3 89.5671ZM628.928 76.871L627.006 78.1341L627.015 78.147L627.023 78.1597L628.928 76.871ZM619.162 67.9186L618.027 69.9189L618.048 69.9307L618.069 69.942L619.162 67.9186ZM589.864 67.9186L590.957 69.942L590.978 69.9307L590.999 69.9189L589.864 67.9186ZM580.097 76.871L582.002 78.1597L582.011 78.147L582.019 78.1341L580.097 76.871ZM574.563 89.5671L572.332 89.0093L572.326 89.0333L572.32 89.0574L574.563 89.5671ZM551.287 80.2892L553.456 81.0547L553.459 81.0448L551.287 80.2892ZM562.518 60.7567L564.243 62.2785V62.2785L562.518 60.7567ZM580.423 47.7351L579.498 45.6294L579.486 45.6347L580.423 47.7351ZM628.603 47.7351L627.666 49.8355V49.8355L628.603 47.7351ZM646.508 60.7567L644.783 62.2785V62.2785L646.508 60.7567ZM657.739 80.2892L655.567 81.0448L655.57 81.0547L657.739 80.2892ZM657.739 128.144L659.904 128.919L659.908 128.909L657.739 128.144ZM646.508 147.188L644.798 145.649V145.649L646.508 147.188ZM628.603 160.047L629.513 162.159L629.526 162.153L629.54 162.147L628.603 160.047ZM580.423 160.047L579.486 162.147L579.505 162.156L579.525 162.164L580.423 160.047ZM562.518 147.188L564.228 145.649V145.649L562.518 147.188ZM551.287 128.144L549.118 128.909L549.122 128.919L551.287 128.144ZM572.935 104.379H570.635C570.635 109.434 571.197 114.384 572.323 119.224L574.563 118.703L576.803 118.182C575.759 113.69 575.235 109.09 575.235 104.379H572.935ZM574.563 118.703L572.338 119.286C573.594 124.08 575.542 128.445 578.192 132.362L580.097 131.074L582.002 129.785C579.661 126.323 577.92 122.441 576.788 118.12L574.563 118.703ZM580.097 131.074L578.192 132.362C580.894 136.356 584.417 139.579 588.728 142.026L589.864 140.026L590.999 138.026C587.28 135.915 584.292 133.17 582.002 129.785L580.097 131.074ZM589.864 140.026L588.77 142.049C593.197 144.442 598.477 145.581 604.513 145.581V143.281V140.981C599.046 140.981 594.56 139.95 590.957 138.003L589.864 140.026ZM604.513 143.281V145.581C610.549 145.581 615.829 144.442 620.256 142.049L619.162 140.026L618.069 138.003C614.466 139.95 609.98 140.981 604.513 140.981V143.281ZM619.162 140.026L620.298 142.026C624.609 139.579 628.132 136.356 630.834 132.362L628.928 131.074L627.023 129.785C624.733 133.17 621.746 135.915 618.027 138.026L619.162 140.026ZM628.928 131.074L630.834 132.362C633.493 128.431 635.391 124.049 636.537 119.236L634.3 118.703L632.062 118.17C631.038 122.472 629.356 126.337 627.023 129.785L628.928 131.074ZM634.3 118.703L636.528 119.273C637.77 114.418 638.39 109.452 638.39 104.379H636.09H633.79C633.79 109.073 633.217 113.656 632.072 118.133L634.3 118.703ZM636.09 104.379H638.39C638.39 99.0979 637.772 93.9728 636.531 89.0093L634.3 89.5671L632.069 90.125C633.215 94.7106 633.79 99.4603 633.79 104.379H636.09ZM634.3 89.5671L636.543 89.0574C635.401 84.0321 633.504 79.5306 630.834 75.5823L628.928 76.871L627.023 78.1597C629.344 81.5903 631.029 85.553 632.057 90.0769L634.3 89.5671ZM628.928 76.871L630.851 75.6079C628.145 71.4905 624.604 68.2458 620.256 65.8953L619.162 67.9186L618.069 69.942C621.75 71.9321 624.72 74.6556 627.006 78.1341L628.928 76.871ZM619.162 67.9186L620.298 65.9184C615.861 63.4004 610.566 62.2005 604.513 62.2005V64.5005V66.8005C609.963 66.8005 614.433 67.8793 618.027 69.9189L619.162 67.9186ZM604.513 64.5005V62.2005C598.46 62.2005 593.165 63.4004 588.728 65.9184L589.864 67.9186L590.999 69.9189C594.592 67.8793 599.063 66.8005 604.513 66.8005V64.5005ZM589.864 67.9186L588.77 65.8953C584.422 68.2458 580.881 71.4905 578.175 75.6079L580.097 76.871L582.019 78.1341C584.305 74.6556 587.276 71.9321 590.957 69.942L589.864 67.9186ZM580.097 76.871L578.192 75.5823C575.531 79.5166 573.584 84.0011 572.332 89.0093L574.563 89.5671L576.794 90.125C577.93 85.5839 579.672 81.6044 582.002 78.1597L580.097 76.871ZM574.563 89.5671L572.32 89.0574C571.196 94.0061 570.635 99.1147 570.635 104.379H572.935H575.235C575.235 99.4435 575.76 94.6774 576.806 90.0769L574.563 89.5671ZM547.38 104.379H549.68C549.68 95.9305 550.947 88.1623 553.456 81.0547L551.287 80.2892L549.118 79.5237C546.418 87.1739 545.08 95.4658 545.08 104.379H547.38ZM551.287 80.2892L553.459 81.0448C555.973 73.8183 559.571 67.5726 564.243 62.2785L562.518 60.7567L560.794 59.235C555.699 65.0093 551.81 71.7852 549.115 79.5336L551.287 80.2892ZM562.518 60.7567L564.243 62.2785C568.898 57.0028 574.593 52.8546 581.36 49.8355L580.423 47.7351L579.486 45.6347C572.146 48.9094 565.905 53.4422 560.794 59.235L562.518 60.7567ZM580.423 47.7351L581.348 49.8408C588.181 46.8385 595.89 45.3148 604.513 45.3148V43.0148V40.7148C595.34 40.7148 586.989 42.3379 579.498 45.6294L580.423 47.7351ZM604.513 43.0148V45.3148C613.25 45.3148 620.952 46.8403 627.666 49.8355L628.603 47.7351L629.54 45.6347C622.147 42.3361 613.789 40.7148 604.513 40.7148V43.0148ZM628.603 47.7351L627.666 49.8355C634.433 52.8546 640.128 57.0028 644.783 62.2785L646.508 60.7567L648.232 59.235C643.121 53.4422 636.88 48.9094 629.54 45.6347L628.603 47.7351ZM646.508 60.7567L644.783 62.2785C649.454 67.5726 653.053 73.8183 655.567 81.0448L657.739 80.2892L659.911 79.5336C657.216 71.7852 653.327 65.0093 648.232 59.235L646.508 60.7567ZM657.739 80.2892L655.57 81.0547C658.079 88.1623 659.345 95.9305 659.345 104.379H661.645H663.945C663.945 95.4658 662.608 87.1739 659.908 79.5237L657.739 80.2892ZM661.645 104.379H659.345C659.345 112.604 658.081 120.265 655.57 127.378L657.739 128.144L659.908 128.909C662.606 121.265 663.945 113.083 663.945 104.379H661.645ZM657.739 128.144L655.574 127.368C653.064 134.374 649.47 140.459 644.798 145.649L646.508 147.188L648.217 148.727C653.312 143.066 657.205 136.455 659.904 128.919L657.739 128.144ZM646.508 147.188L644.798 145.649C640.143 150.822 634.443 154.923 627.666 157.946L628.603 160.047L629.54 162.147C636.87 158.877 643.106 154.405 648.217 148.727L646.508 147.188ZM628.603 160.047L627.693 157.934C620.972 160.829 613.26 162.304 604.513 162.304V164.604V166.904C613.779 166.904 622.127 165.341 629.513 162.159L628.603 160.047ZM604.513 164.604V162.304C595.879 162.304 588.161 160.831 581.321 157.929L580.423 160.047L579.525 162.164C587.009 165.339 595.35 166.904 604.513 166.904V164.604ZM580.423 160.047L581.36 157.946C574.583 154.923 568.883 150.822 564.228 145.649L562.518 147.188L560.809 148.727C565.919 154.405 572.156 158.877 579.486 162.147L580.423 160.047ZM562.518 147.188L564.228 145.649C559.556 140.459 555.962 134.374 553.452 127.368L551.287 128.144L549.122 128.919C551.821 136.455 555.714 143.066 560.809 148.727L562.518 147.188ZM551.287 128.144L553.456 127.378C550.945 120.265 549.68 112.604 549.68 104.379H547.38H545.08C545.08 113.083 546.42 121.265 549.118 128.909L551.287 128.144ZM704.669 98.3567H702.369V100.657H704.669V98.3567ZM745.85 69.5463L744.322 71.2654L744.34 71.2815L744.358 71.2972L745.85 69.5463ZM704.669 65.6399V63.3399H702.369V65.6399H704.669ZM679.114 45.7819V43.4818H676.814V45.7819H679.114ZM755.779 48.3862L754.886 50.5059L754.92 50.5199L754.953 50.5329L755.779 48.3862ZM766.522 55.2225L764.895 56.8489L764.91 56.8637L764.925 56.8782L766.522 55.2225ZM773.358 65.4771L771.214 66.3107L771.229 66.3472L771.244 66.3831L773.358 65.4771ZM771.405 95.5896L769.421 94.4254L769.412 94.4416L769.403 94.4579L771.405 95.5896ZM757.407 106.984L756.552 104.848L755.107 105.426V106.984H757.407ZM757.407 107.309H755.107V109.061L756.795 109.526L757.407 107.309ZM765.22 111.378L763.686 113.092L763.712 113.115L763.738 113.138L765.22 111.378ZM770.265 117.726L768.226 118.79L768.236 118.809L768.246 118.828L770.265 117.726ZM773.032 125.702L770.771 126.121L770.778 126.161L770.787 126.201L773.032 125.702ZM774.335 134.492L776.631 134.357L776.63 134.339L776.628 134.322L774.335 134.492ZM775.148 148.653L772.856 148.844L772.86 148.891L772.866 148.938L775.148 148.653ZM776.451 156.14L774.208 156.65L774.222 156.711L774.239 156.772L776.451 156.14ZM779.218 162V164.3H783.757L781.073 160.64L779.218 162ZM753.663 162L751.514 162.821L752.08 164.3H753.663V162ZM751.058 148.816L753.354 148.669V148.669L751.058 148.816ZM749.594 134.166L751.872 133.848L751.87 133.841L749.594 134.166ZM744.059 120.819L745.686 119.193V119.193L744.059 120.819ZM704.669 116.587V114.287H702.369V116.587H704.669ZM704.669 162V164.3H706.969V162H704.669ZM679.114 162H676.814V164.3H679.114V162ZM704.669 98.3567V100.657H732.665V98.3567V96.0567H704.669V98.3567ZM732.665 98.3567V100.657C738.817 100.657 743.861 99.2955 747.378 96.1693L745.85 94.4502L744.322 92.7312C741.979 94.8136 738.233 96.0567 732.665 96.0567V98.3567ZM745.85 94.4502L747.378 96.1693C751 92.95 752.545 87.9431 752.545 81.7541H750.245H747.945C747.945 87.2847 746.56 90.7419 744.322 92.7312L745.85 94.4502ZM750.245 81.7541H752.545C752.545 75.7589 750.987 70.9008 747.341 67.7955L745.85 69.5463L744.358 71.2972C746.573 73.1835 747.945 76.4639 747.945 81.7541H750.245ZM745.85 69.5463L747.378 67.8273C743.861 64.7011 738.817 63.3399 732.665 63.3399V65.6399V67.9399C738.233 67.9399 741.979 69.183 744.322 71.2654L745.85 69.5463ZM732.665 65.6399V63.3399H704.669V65.6399V67.9399H732.665V65.6399ZM704.669 65.6399H702.369V98.3567H704.669H706.969V65.6399H704.669ZM679.114 45.7819V48.0818H741.781V45.7819V43.4818H679.114V45.7819ZM741.781 45.7819V48.0818C746.732 48.0818 751.088 48.9066 754.886 50.5059L755.779 48.3862L756.671 46.2664C752.223 44.3933 747.246 43.4818 741.781 43.4818V45.7819ZM755.779 48.3862L754.953 50.5329C758.913 52.0561 762.214 54.1673 764.895 56.8489L766.522 55.2225L768.148 53.5962C764.97 50.4181 761.108 47.9717 756.604 46.2395L755.779 48.3862ZM766.522 55.2225L764.925 56.8782C767.726 59.5786 769.817 62.7168 771.214 66.3107L773.358 65.4771L775.502 64.6435C773.861 60.4243 771.395 56.7263 768.118 53.5669L766.522 55.2225ZM773.358 65.4771L771.244 66.3831C772.74 69.8734 773.5 73.6859 773.5 77.8476H775.8H778.1C778.1 73.1113 777.232 68.6768 775.472 64.5711L773.358 65.4771ZM775.8 77.8476H773.5C773.5 84.3494 772.109 89.846 769.421 94.4254L771.405 95.5896L773.388 96.7539C776.56 91.35 778.1 85.0186 778.1 77.8476H775.8ZM771.405 95.5896L769.403 94.4579C766.892 98.8994 762.689 102.393 756.552 104.848L757.407 106.984L758.261 109.119C765.146 106.365 770.275 102.263 773.407 96.7214L771.405 95.5896ZM757.407 106.984H755.107V107.309H757.407H759.707V106.984H757.407ZM757.407 107.309L756.795 109.526C759.661 110.317 761.932 111.523 763.686 113.092L765.22 111.378L766.753 109.664C764.383 107.544 761.446 106.038 758.018 105.092L757.407 107.309ZM765.22 111.378L763.738 113.138C765.56 114.672 767.057 116.548 768.226 118.79L770.265 117.726L772.305 116.663C770.87 113.913 769.002 111.557 766.701 109.619L765.22 111.378ZM770.265 117.726L768.246 118.828C769.422 120.982 770.268 123.407 770.771 126.121L773.032 125.702L775.294 125.283C774.711 122.137 773.714 119.245 772.285 116.625L770.265 117.726ZM773.032 125.702L770.787 126.201C771.415 129.025 771.832 131.845 772.041 134.662L774.335 134.492L776.628 134.322C776.403 131.279 775.952 128.239 775.278 125.203L773.032 125.702ZM774.335 134.492L772.039 134.627C772.146 136.457 772.254 138.615 772.362 141.103L774.66 141.003L776.958 140.903C776.849 138.399 776.74 136.216 776.631 134.357L774.335 134.492ZM774.66 141.003L772.362 141.103C772.472 143.63 772.637 146.211 772.856 148.844L775.148 148.653L777.441 148.462C777.226 145.886 777.065 143.367 776.958 140.903L774.66 141.003ZM775.148 148.653L772.866 148.938C773.201 151.613 773.647 154.184 774.208 156.65L776.451 156.14L778.693 155.631C778.169 153.322 777.748 150.902 777.431 148.368L775.148 148.653ZM776.451 156.14L774.239 156.772C774.952 159.268 775.983 161.478 777.363 163.36L779.218 162L781.073 160.64C780.065 159.266 779.251 157.57 778.662 155.508L776.451 156.14ZM779.218 162V159.7H753.663V162V164.3H779.218V162ZM753.663 162L755.811 161.179C754.503 157.758 753.669 153.602 753.354 148.669L751.058 148.816L748.763 148.962C749.099 154.229 750.001 158.863 751.514 162.821L753.663 162ZM751.058 148.816L753.354 148.669C753.025 143.516 752.531 138.576 751.871 133.848L749.594 134.166L747.316 134.484C747.958 139.089 748.441 143.915 748.763 148.962L751.058 148.816ZM749.594 134.166L751.87 133.841C750.968 127.521 749.003 122.51 745.686 119.193L744.059 120.819L742.433 122.445C744.758 124.771 746.483 128.658 747.317 134.492L749.594 134.166ZM744.059 120.819L745.686 119.193C742.234 115.741 736.882 114.287 730.224 114.287V116.587V118.887C736.371 118.887 740.242 120.254 742.433 122.445L744.059 120.819ZM730.224 116.587V114.287H704.669V116.587V118.887H730.224V116.587ZM704.669 116.587H702.369V162H704.669H706.969V116.587H704.669ZM704.669 162V159.7H679.114V162V164.3H704.669V162ZM679.114 162H681.414V45.7819H679.114H676.814V162H679.114ZM796.582 45.7819V43.4818H794.282V45.7819H796.582ZM883.502 45.7819H885.802V43.4818H883.502V45.7819ZM883.502 67.2676V69.5676H885.802V67.2676H883.502ZM822.137 67.2676V64.9676H819.837V67.2676H822.137ZM822.137 92.1714H819.837V94.4715H822.137V92.1714ZM878.456 92.1714H880.756V89.8715H878.456V92.1714ZM878.456 112.029V114.329H880.756V112.029H878.456ZM822.137 112.029V109.729H819.837V112.029H822.137ZM822.137 140.514H819.837V142.814H822.137V140.514ZM884.804 140.514H887.104V138.214H884.804V140.514ZM884.804 162V164.3H887.104V162H884.804ZM796.582 162H794.282V164.3H796.582V162ZM796.582 45.7819V48.0818H883.502V45.7819V43.4818H796.582V45.7819ZM883.502 45.7819H881.202V67.2676H883.502H885.802V45.7819H883.502ZM883.502 67.2676V64.9676H822.137V67.2676V69.5676H883.502V67.2676ZM822.137 67.2676H819.837V92.1714H822.137H824.437V67.2676H822.137ZM822.137 92.1714V94.4715H878.456V92.1714V89.8715H822.137V92.1714ZM878.456 92.1714H876.156V112.029H878.456H880.756V92.1714H878.456ZM878.456 112.029V109.729H822.137V112.029V114.329H878.456V112.029ZM822.137 112.029H819.837V140.514H822.137H824.437V112.029H822.137ZM822.137 140.514V142.814H884.804V140.514V138.214H822.137V140.514ZM884.804 140.514H882.504V162H884.804H887.104V140.514H884.804ZM884.804 162V159.7H796.582V162V164.3H884.804V162ZM796.582 162H798.882V45.7819H796.582H794.282V162H796.582ZM919.545 123.423H921.845V121.123H919.545V123.423ZM921.661 133.352L923.702 132.291V132.291L921.661 133.352ZM927.195 140.026L925.801 141.855L925.85 141.892L925.9 141.926L927.195 140.026ZM935.497 143.77L934.885 145.987L934.921 145.997L934.957 146.005L935.497 143.77ZM952.587 144.421L952.873 146.703L952.919 146.697L952.966 146.689L952.587 144.421ZM959.912 142.142L958.923 140.065V140.065L959.912 142.142ZM965.609 137.747L967.385 139.209L967.405 139.185L967.425 139.159L965.609 137.747ZM964.795 122.772L963.169 124.399L963.191 124.421L963.213 124.442L964.795 122.772ZM956.982 117.889L957.836 115.754V115.754L956.982 117.889ZM945.914 114.471L946.444 112.233V112.233L945.914 114.471ZM933.381 111.216L934.005 109.002L933.972 108.993L933.938 108.984L933.381 111.216ZM920.684 107.309L919.84 109.448L919.865 109.458L919.889 109.467L920.684 107.309ZM909.616 101.124L908.217 102.949V102.949L909.616 101.124ZM901.64 91.8459L899.595 92.8978L899.613 92.9332L899.633 92.9679L901.64 91.8459ZM902.454 62.71L900.469 61.5481L900.465 61.5558L900.46 61.5635L902.454 62.71ZM912.546 51.6416L911.214 49.7667V49.7667L912.546 51.6416ZM926.544 45.1308L925.943 42.9107V42.9107L926.544 45.1308ZM959.587 45.1308L959.018 47.3595L959.044 47.366L959.069 47.3719L959.587 45.1308ZM974.562 51.6416L973.243 53.5258V53.5258L974.562 51.6416ZM984.816 63.3611L982.778 64.4266L982.792 64.4545L982.808 64.482L984.816 63.3611ZM988.723 80.452V82.752H991.023V80.452H988.723ZM963.981 80.452L961.686 80.5954L961.821 82.752H963.981V80.452ZM961.703 71.8251L959.665 72.8923L959.685 72.9297L959.706 72.9663L961.703 71.8251ZM956.82 66.4537L955.591 68.3983V68.3983L956.82 66.4537ZM949.658 63.6866L949.189 65.9383L949.198 65.9401L949.207 65.9419L949.658 63.6866ZM929.149 65.8026L927.93 63.8522L927.901 63.8702L927.873 63.8889L929.149 65.8026ZM925.079 69.8719L923.166 68.5961V68.5961L925.079 69.8719ZM924.754 81.5914L922.795 82.7968V82.7968L924.754 81.5914ZM929.8 85.4979L928.807 87.5728L928.824 87.5809L928.841 87.5887L929.8 85.4979ZM940.38 89.0788L939.784 91.3003L939.797 91.3038L940.38 89.0788ZM958.122 93.6364L957.556 95.8657L957.613 95.8802L957.671 95.8917L958.122 93.6364ZM967.074 96.0779L966.384 98.2721L966.421 98.2837L966.458 98.294L967.074 96.0779ZM978.631 101.449L979.894 99.5273V99.5273L978.631 101.449ZM988.397 111.541L986.461 112.782L986.479 112.811L986.499 112.84L988.397 111.541ZM989.536 142.305L987.441 141.357V141.357L989.536 142.305ZM980.258 154.187L981.707 155.974L981.712 155.969L980.258 154.187ZM965.121 161.837L964.453 159.636L964.442 159.64L965.121 161.837ZM925.568 162.163L926.163 159.941L926.149 159.937L926.135 159.934L925.568 162.163ZM909.616 154.838L908.25 156.689L908.261 156.696L908.271 156.704L909.616 154.838ZM898.71 141.979L896.671 143.042V143.042L898.71 141.979ZM894.804 123.423V121.123H892.539L892.504 123.389L894.804 123.423ZM919.545 123.423H917.245C917.245 127.6 917.999 131.295 919.62 134.413L921.661 133.352L923.702 132.291C922.502 129.985 921.845 127.06 921.845 123.423H919.545ZM921.661 133.352L919.62 134.413C921.177 137.406 923.235 139.9 925.801 141.855L927.195 140.026L928.589 138.196C926.598 136.679 924.967 134.724 923.702 132.291L921.661 133.352ZM927.195 140.026L925.9 141.926C928.521 143.714 931.525 145.06 934.885 145.987L935.497 143.77L936.108 141.553C933.174 140.743 930.644 139.594 928.491 138.126L927.195 140.026ZM935.497 143.77L934.957 146.005C938.287 146.809 941.724 147.209 945.263 147.209V144.909V142.609C942.074 142.609 939 142.249 936.036 141.534L935.497 143.77ZM945.263 144.909V147.209C947.65 147.209 950.188 147.039 952.873 146.703L952.587 144.421L952.302 142.139C949.779 142.454 947.433 142.609 945.263 142.609V144.909ZM952.587 144.421L952.966 146.689C955.772 146.222 958.42 145.4 960.901 144.219L959.912 142.142L958.923 140.065C956.847 141.054 954.612 141.752 952.209 142.152L952.587 144.421ZM959.912 142.142L960.901 144.219C963.466 142.997 965.639 141.328 967.385 139.209L965.609 137.747L963.834 136.285C962.541 137.855 960.916 139.117 958.923 140.065L959.912 142.142ZM965.609 137.747L967.425 139.159C969.313 136.731 970.188 133.766 970.188 130.423H967.888H965.588C965.588 132.939 964.944 134.856 963.794 136.335L965.609 137.747ZM967.888 130.423H970.188C970.188 126.72 968.949 123.54 966.377 121.103L964.795 122.772L963.213 124.442C964.765 125.912 965.588 127.832 965.588 130.423H967.888ZM964.795 122.772L966.422 121.146C964.197 118.922 961.306 117.142 957.836 115.754L956.982 117.889L956.128 120.025C959.169 121.241 961.487 122.716 963.169 124.399L964.795 122.772ZM956.982 117.889L957.836 115.754C954.457 114.402 950.656 113.23 946.444 112.233L945.914 114.471L945.384 116.709C949.419 117.665 952.997 118.772 956.128 120.025L956.982 117.889ZM945.914 114.471L946.444 112.233C942.353 111.264 938.207 110.187 934.005 109.002L933.381 111.216L932.756 113.429C937.018 114.631 941.228 115.725 945.384 116.709L945.914 114.471ZM933.381 111.216L933.938 108.984C929.677 107.919 925.524 106.641 921.48 105.151L920.684 107.309L919.889 109.467C924.092 111.016 928.403 112.342 932.823 113.447L933.381 111.216ZM920.684 107.309L921.529 105.17C917.588 103.614 914.088 101.654 911.015 99.2985L909.616 101.124L908.217 102.949C911.655 105.585 915.534 107.749 919.84 109.448L920.684 107.309ZM909.616 101.124L911.015 99.2985C908.016 96.9991 905.562 94.1485 903.648 90.7239L901.64 91.8459L899.633 92.9679C901.842 96.9223 904.705 100.257 908.217 102.949L909.616 101.124ZM901.64 91.8459L903.686 90.794C901.936 87.3915 901.01 83.2123 901.01 78.1732H898.71H896.41C896.41 83.7684 897.438 88.7044 899.595 92.8978L901.64 91.8459ZM898.71 78.1732H901.01C901.01 72.5298 902.188 67.7867 904.448 63.8565L902.454 62.71L900.46 61.5635C897.729 66.3144 896.41 71.88 896.41 78.1732H898.71ZM902.454 62.71L904.439 63.8719C906.882 59.6985 910.025 56.2539 913.878 53.5165L912.546 51.6416L911.214 49.7667C906.819 52.889 903.235 56.8233 900.469 61.5481L902.454 62.71ZM912.546 51.6416L913.878 53.5165C917.766 50.7542 922.181 48.6953 927.145 47.3508L926.544 45.1308L925.943 42.9107C920.49 44.3876 915.573 46.6693 911.214 49.7667L912.546 51.6416ZM926.544 45.1308L927.145 47.3508C932.165 45.9913 937.172 45.3148 942.17 45.3148V43.0148V40.7148C936.751 40.7148 931.341 41.4489 925.943 42.9107L926.544 45.1308ZM942.17 43.0148V45.3148C948.068 45.3148 953.681 45.9991 959.018 47.3595L959.587 45.1308L960.155 42.902C954.423 41.4411 948.426 40.7148 942.17 40.7148V43.0148ZM959.587 45.1308L959.069 47.3719C964.451 48.6138 969.165 50.6719 973.243 53.5258L974.562 51.6416L975.88 49.7574C971.276 46.5345 966.007 44.252 960.104 42.8897L959.587 45.1308ZM974.562 51.6416L973.243 53.5258C977.276 56.3492 980.45 59.9728 982.778 64.4266L984.816 63.3611L986.854 62.2956C984.191 57.2001 980.528 53.0107 975.88 49.7574L974.562 51.6416ZM984.816 63.3611L982.808 64.482C985.177 68.7277 986.423 74.0166 986.423 80.452H988.723H991.023C991.023 73.4316 989.663 67.3266 986.824 62.2401L984.816 63.3611ZM988.723 80.452V78.152H963.981V80.452V82.752H988.723V80.452ZM963.981 80.452L966.277 80.3085C966.045 76.5944 965.224 73.3508 963.7 70.684L961.703 71.8251L959.706 72.9663C960.786 74.857 961.484 77.3646 961.686 80.5954L963.981 80.452ZM961.703 71.8251L963.74 70.7579C962.369 68.141 960.471 66.0394 958.048 64.5091L956.82 66.4537L955.591 68.3983C957.292 69.4723 958.649 70.9517 959.665 72.8923L961.703 71.8251ZM956.82 66.4537L958.048 64.5091C955.718 63.0379 953.061 62.0217 950.109 61.4313L949.658 63.6866L949.207 65.9419C951.68 66.4367 953.797 67.2652 955.591 68.3983L956.82 66.4537ZM949.658 63.6866L950.127 61.435C947.343 60.855 944.308 60.5728 941.031 60.5728V62.8728V65.1728C944.048 65.1728 946.763 65.433 949.189 65.9383L949.658 63.6866ZM941.031 62.8728V60.5728C938.806 60.5728 936.586 60.807 934.372 61.2732L934.846 63.5238L935.319 65.7745C937.229 65.3725 939.132 65.1728 941.031 65.1728V62.8728ZM934.846 63.5238L934.372 61.2732C932.054 61.7612 929.901 62.6199 927.93 63.8522L929.149 65.8026L930.368 67.753C931.868 66.8151 933.514 66.1546 935.319 65.7745L934.846 63.5238ZM929.149 65.8026L927.873 63.8889C925.992 65.1425 924.419 66.7157 923.166 68.5961L925.079 69.8719L926.993 71.1477C927.91 69.7727 929.049 68.633 930.424 67.7163L929.149 65.8026ZM925.079 69.8719L923.166 68.5961C921.767 70.6934 921.152 73.2319 921.152 76.0572H923.452H925.752C925.752 73.8908 926.221 72.3057 926.993 71.1477L925.079 69.8719ZM923.452 76.0572H921.152C921.152 78.6078 921.635 80.9118 922.795 82.7968L924.754 81.5914L926.713 80.3859C926.136 79.4496 925.752 78.0641 925.752 76.0572H923.452ZM924.754 81.5914L922.795 82.7968C924.003 84.7598 926.152 86.3027 928.807 87.5728L929.8 85.4979L930.792 83.423C928.456 82.3057 927.241 81.2442 926.713 80.3859L924.754 81.5914ZM929.8 85.4979L928.841 87.5887C931.611 88.8581 935.275 90.0907 939.784 91.3002L940.38 89.0788L940.976 86.8574C936.586 85.6796 933.197 84.5249 930.758 83.407L929.8 85.4979ZM940.38 89.0788L939.797 91.3038C944.363 92.4995 950.283 94.0203 957.556 95.8657L958.122 93.6364L958.687 91.407C951.42 89.563 945.512 88.0454 940.962 86.8539L940.38 89.0788ZM958.122 93.6364L957.671 95.8917C959.721 96.3018 962.614 97.087 966.384 98.2721L967.074 96.0779L967.764 93.8838C963.939 92.6816 960.863 91.8391 958.573 91.3811L958.122 93.6364ZM967.074 96.0779L966.458 98.294C970.109 99.3081 973.745 100.991 977.368 103.371L978.631 101.449L979.894 99.5273C975.92 96.9161 971.852 95.018 967.69 93.8618L967.074 96.0779ZM978.631 101.449L977.368 103.371C980.869 105.672 983.903 108.793 986.461 112.782L988.397 111.541L990.333 110.3C987.465 105.825 983.989 102.218 979.894 99.5273L978.631 101.449ZM988.397 111.541L986.499 112.84C988.99 116.48 990.329 121.306 990.329 127.493H992.629H994.929C994.929 120.657 993.447 114.849 990.295 110.242L988.397 111.541ZM992.629 127.493H990.329C990.329 132.504 989.359 137.116 987.441 141.357L989.536 142.305L991.632 143.253C993.837 138.379 994.929 133.116 994.929 127.493H992.629ZM989.536 142.305L987.441 141.357C985.535 145.57 982.671 149.251 978.805 152.405L980.258 154.187L981.712 155.969C986.093 152.395 989.414 148.155 991.632 143.253L989.536 142.305ZM980.258 154.187L978.81 152.4C975.072 155.431 970.308 157.859 964.453 159.636L965.121 161.837L965.789 164.038C972.087 162.126 977.415 159.454 981.707 155.974L980.258 154.187ZM965.121 161.837L964.442 159.64C958.743 161.401 952.036 162.304 944.286 162.304V164.604V166.904C952.379 166.904 959.562 165.963 965.8 164.035L965.121 161.837ZM944.286 164.604V162.304C938.081 162.304 932.042 161.516 926.163 159.941L925.568 162.163L924.972 164.384C931.247 166.065 937.687 166.904 944.286 166.904V164.604ZM925.568 162.163L926.135 159.934C920.426 158.481 915.377 156.156 910.961 152.972L909.616 154.838L908.271 156.704C913.187 160.248 918.772 162.806 925 164.392L925.568 162.163ZM909.616 154.838L910.982 152.988C906.717 149.839 903.308 145.827 900.75 140.917L898.71 141.979L896.671 143.042C899.539 148.549 903.4 153.109 908.25 156.689L909.616 154.838ZM898.71 141.979L900.75 140.917C898.249 136.113 897 130.322 897.104 123.458L894.804 123.423L892.504 123.389C892.391 130.849 893.747 137.428 896.671 143.042L898.71 141.979ZM894.804 123.423V125.723H919.545V123.423V121.123H894.804V123.423Z" fill="white" mask="url(#path-1-outside-1_54_2)"/>
<path d="M215.047 183.458V323.831H184.196V183.458H215.047Z" fill="white"/>
<path d="M273.859 183.458L306.676 279.982H307.077L338.128 183.458H381.576V323.831H352.691V224.339H352.29L317.869 323.831H294.079L259.658 225.341H259.257V323.831H230.372V183.458H273.819H273.859Z" fill="white"/>
<path d="M460.207 183.458C468.992 183.458 476.454 184.742 482.632 187.31C488.81 189.877 493.825 193.247 497.676 197.419C501.528 201.632 504.376 206.406 506.141 211.782C507.907 217.157 508.789 222.734 508.789 228.511C508.789 234.288 507.907 239.704 506.141 245.12C504.376 250.576 501.568 255.39 497.676 259.562C493.825 263.774 488.81 267.144 482.632 269.672C476.454 272.239 468.992 273.523 460.207 273.523H427.751V323.871H396.901V183.499H460.207V183.458ZM451.782 249.532C455.312 249.532 458.722 249.252 462.012 248.73C465.301 248.209 468.19 247.206 470.677 245.681C473.165 244.157 475.17 242.03 476.655 239.302C478.179 236.534 478.901 232.964 478.901 228.471C478.901 223.977 478.139 220.407 476.655 217.639C475.13 214.871 473.165 212.744 470.677 211.26C468.19 209.736 465.301 208.733 462.012 208.211C458.722 207.69 455.312 207.409 451.782 207.409H427.791V249.492H451.782V249.532Z" fill="white"/>
<path d="M571.694 183.458L624.168 323.831H592.114L581.483 292.579H529.008L518.016 323.831H486.965L540.041 183.458H571.694ZM573.459 269.591L555.767 218.08H555.366L537.072 269.591H573.459Z" fill="white"/>
<path d="M714.633 220.929C712.788 217.96 710.501 215.392 707.733 213.146C704.965 210.899 701.876 209.174 698.386 207.93C694.895 206.687 691.285 206.045 687.474 206.045C680.533 206.045 674.636 207.409 669.782 210.057C664.927 212.745 660.996 216.355 657.987 220.888C654.978 225.422 652.772 230.557 651.408 236.334C650.044 242.111 649.362 248.048 649.362 254.226C649.362 260.404 650.044 265.861 651.408 271.437C652.772 277.013 654.978 282.028 657.987 286.481C660.996 290.934 664.927 294.505 669.782 297.192C674.636 299.88 680.533 301.204 687.474 301.204C696.901 301.204 704.283 298.316 709.579 292.539C714.874 286.762 718.124 279.18 719.327 269.752H749.215C748.413 278.538 746.407 286.481 743.117 293.542C739.827 300.602 735.495 306.66 730.159 311.635C724.783 316.609 718.485 320.421 711.304 323.028C704.082 325.636 696.179 326.96 687.514 326.96C676.762 326.96 667.094 325.074 658.509 321.343C649.923 317.612 642.702 312.477 636.765 305.898C630.868 299.359 626.334 291.656 623.205 282.79C620.076 273.924 618.471 264.416 618.471 254.186C618.471 243.956 620.036 233.967 623.205 224.98C626.334 215.994 630.868 208.171 636.765 201.471C642.662 194.772 649.883 189.556 658.509 185.745C667.094 181.934 676.762 180.049 687.514 180.049C695.257 180.049 702.558 181.172 709.418 183.378C716.318 185.625 722.456 188.874 727.912 193.127C733.328 197.379 737.822 202.675 741.392 208.973C744.922 215.272 747.169 222.493 748.092 230.597H718.204C717.682 227.067 716.479 223.817 714.674 220.848L714.633 220.929Z" fill="white"/>
<path d="M747.45 209.415V183.458H862.467V209.415H820.384V323.831H789.533V209.415H747.45Z" fill="white"/>
<path d="M865.436 225.061C868.565 216.074 873.099 208.251 878.996 201.552C884.893 194.852 892.114 189.637 900.74 185.826C909.325 182.014 918.993 180.129 929.745 180.129C940.496 180.129 950.325 182.014 958.83 185.826C967.335 189.637 974.556 194.852 980.454 201.552C986.351 208.251 990.884 216.074 994.014 225.061C997.143 234.047 998.747 243.756 998.747 254.267C998.747 264.777 997.183 274.045 994.014 282.871C990.844 291.696 986.351 299.399 980.454 305.978C974.556 312.518 967.335 317.693 958.83 321.424C950.325 325.155 940.617 327.04 929.745 327.04C918.873 327.04 909.325 325.155 900.74 321.424C892.154 317.693 884.933 312.558 878.996 305.978C873.099 299.439 868.565 291.737 865.436 282.871C862.307 274.004 860.702 264.497 860.702 254.267C860.702 244.037 862.267 234.047 865.436 225.061ZM893.639 271.437C895.003 277.013 897.209 282.028 900.218 286.481C903.227 290.934 907.159 294.505 912.013 297.193C916.867 299.88 922.764 301.204 929.705 301.204C936.645 301.204 942.542 299.88 947.397 297.193C952.251 294.505 956.182 290.934 959.191 286.481C962.2 282.028 964.407 277.013 965.771 271.437C967.135 265.861 967.817 260.124 967.817 254.226C967.817 248.329 967.135 242.111 965.771 236.334C964.407 230.557 962.2 225.422 959.191 220.889C956.182 216.355 952.251 212.745 947.397 210.057C942.542 207.369 936.645 206.045 929.705 206.045C922.764 206.045 916.867 207.409 912.013 210.057C907.159 212.745 903.227 216.355 900.218 220.889C897.209 225.422 895.003 230.557 893.639 236.334C892.275 242.111 891.593 248.048 891.593 254.226C891.593 260.405 892.275 265.861 893.639 271.437Z" fill="white"/>
<path d="M88.6116 174.001C88.6116 178.763 88.3669 183.24 88.1223 187.757C88.1223 190.24 87.8777 192.763 87.633 195.001C86.6137 201.513 85.6351 208.513 85.6351 215.269C85.6351 218.525 85.3905 221.536 85.3905 224.751C85.3905 231.995 85.3905 239.24 85.6351 246.484C85.8797 249.495 85.8798 252.466 86.1244 255.478C86.369 257.716 86.8583 260.24 87.1437 262.478C87.3884 263.495 87.3884 264.472 87.3884 265.245C89.3863 277.251 94.1568 286.001 106.43 289.989C107.694 290.234 108.917 290.722 109.936 291.251C113.443 292.757 115.685 296.745 114.707 300.489C114.462 302.239 113.443 303.745 112.464 305.251C109.977 307.734 106.47 308.995 102.964 308.995C93.9529 308.995 86.4506 298.739 82.6586 291.739C82.1693 290.478 81.3946 289.501 80.9054 288.239C78.9075 284.007 77.6435 279.489 76.3795 274.728C76.1349 273.466 75.8902 272.489 75.3602 271.228C75.1155 270.21 74.3408 269.722 73.8515 268.989C72.5875 268.257 71.8536 268.257 70.5896 268.989L68.3471 271.228L65.3298 276.478C64.0659 278.472 62.8426 280.222 61.8233 282.216C60.5593 284.455 59.3361 286.978 58.0721 289.216C56.8081 291.699 55.5849 294.222 54.321 296.46C53.3016 298.943 52.323 301.222 51.3037 303.46C48.0418 309.443 45.5546 312.699 40.0502 316.972C36.7883 318.722 33.2818 320.472 29.5306 320.96C27.0434 321.449 24.5154 321.449 22.2729 320.716C14.2405 318.722 10 312.21 10 304.234C10 294.995 17.0131 279.489 21.7836 272.001C23.7815 268.501 26.024 265.245 28.0627 261.745C32.3032 255.234 37.3183 249.251 42.3335 243.513C42.8228 243.024 43.5975 242.251 44.3314 241.763C46.3293 239.524 48.8573 238.019 51.3445 236.757C52.8531 235.74 54.6064 234.763 56.6043 234.519C57.3382 234.519 57.8683 234.03 58.3575 233.501C59.8662 231.507 60.6001 229.513 60.6001 226.99C60.8447 223.978 60.8447 221.007 60.6001 217.995C60.3555 215.228 60.1108 212.501 59.5808 209.734C59.3361 206.234 58.3168 202.978 57.5828 199.478C55.5849 191.216 53.587 182.711 52.323 174.205C51.8338 171.722 51.8338 168.955 51.8338 166.472C52.0784 164.234 51.8338 162.24 52.323 160.205C53.3424 155.688 54.5656 151.211 58.6022 148.443C61.6194 145.961 65.126 144.699 68.6325 144.699C73.6477 144.699 77.6435 146.693 81.15 150.193C85.1458 154.955 87.6738 160.938 88.4077 166.961C88.6524 169.199 88.6524 171.722 88.897 173.961H88.6524L88.6116 174.001ZM14.4851 305.984C14.4851 304.478 14.4851 302.728 14.9744 301.222C15.219 300.978 15.219 300.489 15.219 300.205C14.9744 299.187 15.4637 298.21 15.7083 297.193C15.7083 295.931 15.953 294.955 16.1976 293.693C16.4422 293.205 16.4422 292.96 16.6869 292.675C18.1955 290.681 19.1741 288.443 20.1934 286.408C22.1913 282.176 23.9446 277.658 25.9425 273.426C27.6958 269.681 29.449 265.937 31.4469 262.437C32.4663 260.931 33.4448 259.181 34.4642 257.676C34.7088 257.187 34.9535 256.943 34.4642 256.414C34.2195 256.658 33.7303 256.658 33.7303 256.902C32.4663 258.408 31.4877 259.67 30.4684 260.891C28.2258 264.146 26.2279 267.646 24.1892 271.146C22.1913 275.135 19.9488 279.164 18.1955 283.152C16.6869 286.164 15.4229 289.135 15.4229 292.391V293.123L13.9143 297.641C13.6696 298.373 13.425 299.146 13.1803 300.123C13.1803 300.856 13.425 301.629 12.9357 302.361C12.6911 302.361 12.9357 302.606 12.9357 302.606L13.425 303.094C13.1803 303.094 12.9357 303.338 12.6911 303.582C13.425 305.088 12.6911 306.838 13.1803 308.344C13.1803 308.344 13.425 308.588 13.9143 308.832C14.1589 307.571 14.1589 306.838 14.4036 305.821L14.4851 305.984ZM49.7951 251.245C46.5332 254.013 43.2713 257.228 40.7841 260.728C39.2755 262.722 38.2969 265.245 38.0115 267.728C37.7669 268.46 37.7669 268.99 38.0115 269.722C38.2561 271.472 39.5201 272.734 41.0287 273.222C42.5374 273.71 43.8013 272.734 44.5353 271.716C45.0246 271.228 45.5546 270.699 45.7993 269.966C47.0632 268.216 48.2864 266.222 49.3058 264.228C50.8144 261.745 52.323 258.978 53.5462 256.495C54.0355 255.763 54.2802 254.745 54.5656 254.013C54.8102 252.019 54.0763 250.513 52.0784 249.78C51.3445 250.024 50.5698 250.513 49.8358 251.286L49.7951 251.245ZM48.5311 273.995C49.0204 272.978 49.7951 272.001 50.529 270.984C52.0376 268.216 53.7909 265.49 55.2995 262.722C56.3189 260.728 57.0528 258.978 57.7867 256.984C58.806 254.501 58.0314 252.222 57.0528 249.74C56.8081 249.251 56.0334 248.722 55.0549 248.722C55.5442 249.455 55.7888 249.984 56.3189 250.472C56.5635 250.96 56.5635 251.49 56.8081 251.978C55.2995 258.978 50.8144 266.71 47.0225 272.734C46.2885 273.466 45.7585 274.239 45.5138 275.501C45.5138 275.501 45.7585 275.745 45.7585 275.989C47.0225 275.501 47.7564 274.728 48.5311 273.995ZM55.0549 241.763C55.2995 242.007 55.7888 242.007 56.3189 241.763C56.8081 241.519 57.5828 241.274 58.0721 241.03C63.5766 236.513 64.8406 232.28 65.3298 225.525C65.5745 219.257 65.0852 213.03 64.0659 206.763C63.3319 202.53 62.3126 198.257 61.5787 194.269C59.3361 185.275 57.5828 176.036 56.3189 166.757C56.0742 166.269 55.8296 165.496 55.0549 165.007C54.8102 165.251 54.5656 165.496 54.5656 166.025C54.3209 166.513 54.0763 167.286 54.0763 167.775C53.8317 170.542 54.0763 173.025 54.5656 175.792C55.8296 183.28 57.8275 190.525 59.5808 197.81C61.5787 205.542 62.8426 213.559 62.8426 221.821C62.8426 228.333 62.1087 235.088 56.0742 238.833C55.8296 239.077 55.3403 239.321 55.0549 239.85C54.5656 240.094 54.321 240.583 54.0355 240.868C54.2802 241.356 54.5248 241.885 55.0549 241.885V241.763ZM65.5745 149.746C65.3298 149.257 64.8406 149.502 64.5551 149.746C64.392 149.746 64.2289 149.827 64.0659 149.99C63.8212 150.234 63.5766 150.722 63.8212 151.007C64.0659 151.292 64.3105 151.252 64.5551 151.252C65.0444 151.252 65.2891 151.007 65.8191 151.007C66.0638 150.519 66.0638 149.99 65.5745 149.746ZM83.1071 254.745V252.995C83.1071 252.995 82.8625 252.751 82.8625 252.507C82.8625 253.24 82.8625 254.013 83.1071 254.745Z" fill="#C2E538"/>
<path d="M192.904 232.392C193.148 234.901 192.904 237.614 192.417 240.366C191.402 246.601 188.926 252.308 185.435 257.773C184.177 260 182.675 261.984 180.442 264.008C173.46 270.97 167.736 275.464 157.506 277.447C155.03 277.933 152.513 278.459 149.794 278.945C148.048 279.188 146.059 279.188 144.07 279.431C142.568 279.431 141.066 279.674 139.564 279.917C137.331 280.403 135.829 281.658 134.571 283.155C133.556 284.653 133.312 286.394 134.084 288.135C135.586 291.859 141.797 295.097 145.288 296.109C148.535 297.121 151.539 297.364 154.746 297.121C156.248 296.879 157.506 296.636 158.724 296.393C160.47 295.907 162.459 295.664 164.204 295.907C165.95 295.907 167.696 296.393 169.441 297.648C171.43 299.146 172.201 301.372 171.917 304.125C171.43 309.347 166.681 312.342 161.931 312.342C159.698 312.342 157.182 311.857 154.949 311.614C154.218 311.371 153.447 311.371 152.716 311.128C149.712 310.116 146.465 309.873 143.258 309.144C138.508 308.416 133.799 307.161 129.294 305.663L121.824 303.437C118.82 302.182 116.1 300.198 113.584 297.972C108.591 292.992 101.608 281.819 99.3757 275.585C98.645 273.116 98.1173 270.849 98.3608 268.38C98.6044 265.141 100.106 262.429 102.095 260.162C105.099 256.923 107.089 253.442 109.078 249.718C114.071 240.771 122.311 231.825 130.024 224.862C140.497 215.916 151.701 211.179 165.666 210.208C166.681 210.208 167.655 210.208 168.426 209.965C182.391 210.694 190.875 218.183 192.864 232.594L192.904 232.392ZM105.343 276.395H105.83C106.845 277.65 107.576 278.864 108.306 280.119C108.794 280.605 108.794 280.848 109.037 281.131C109.524 281.374 110.052 281.374 110.295 280.888C110.295 280.645 110.052 280.16 110.052 279.633C109.565 278.621 109.321 277.407 108.794 276.395C108.306 275.14 108.55 273.926 108.306 272.671V267.206C108.306 266.194 108.794 264.979 109.321 263.967C110.336 262.469 111.067 260.971 112.082 259.474C112.325 258.988 112.812 258.745 113.096 258.219C114.598 257.207 115.086 255.749 115.086 254.009V253.28C114.355 253.28 114.071 253.766 113.584 254.292C113.096 255.304 112.325 256.276 111.595 257.288C109.605 260.283 107.089 262.996 105.099 266.234C104.612 266.72 104.369 266.963 103.597 266.477C103.435 266.315 103.273 266.234 103.11 266.234C102.867 266.477 102.867 266.963 102.867 267.246C102.867 267.529 102.623 267.732 102.623 267.732C103.354 268.461 103.11 269.23 103.11 269.958C103.11 270.97 103.11 271.699 102.867 272.711C102.867 273.197 102.867 273.966 103.11 274.452C103.354 275.464 103.597 276.193 104.856 276.435C104.856 276.678 104.612 277.164 105.343 277.164V276.435V276.395ZM104.369 267.449V267.691C104.369 267.691 103.882 267.934 103.882 267.691C103.395 267.691 103.151 267.449 102.867 267.206C103.354 267.206 103.882 267.449 104.369 267.449ZM166.721 251.539C169.969 248.301 171.714 244.576 170.699 239.84C169.969 233.363 163.961 229.882 157.75 229.882C153.244 229.882 149.022 231.622 145.044 233.606C140.822 236.075 134.084 240.326 131.567 244.536L130.065 246.034C128.563 248.017 127.589 250.244 127.061 252.754C126.574 255.223 127.304 257.49 128.563 259.474C130.308 261.7 132.541 263.198 135.301 263.441C136.56 263.684 138.062 263.684 139.523 263.927C148.982 263.927 160.713 258.462 166.721 251.499V251.539ZM131.283 238.626C131.526 238.383 131.77 238.14 131.77 237.371C131.283 237.857 131.12 238.275 131.283 238.626ZM137.291 267.975C137.778 267.975 138.278 267.813 138.793 267.489C137.534 267.489 136.316 267.003 135.058 267.246C135.545 267.732 136.289 267.975 137.291 267.975ZM168.71 215.47C168.954 215.47 169.197 215.47 169.441 215.227L169.685 214.985C169.685 214.742 169.685 214.256 169.441 214.256C168.954 214.013 168.426 214.013 167.939 213.77C166.681 213.77 165.706 214.013 164.204 214.499C163.19 214.742 161.972 214.985 160.713 215.511H168.71V215.47ZM176.423 247.815C177.154 246.56 177.438 244.819 176.667 243.605C176.18 242.35 176.18 240.852 175.652 239.638C175.652 238.909 175.652 238.14 175.408 237.654C174.921 235.913 174.394 234.416 173.176 233.444C172.932 233.444 172.689 233.687 172.161 233.93C172.648 235.428 173.176 236.683 173.906 237.897C174.394 238.909 174.637 239.881 174.394 240.893C174.15 241.378 174.394 241.621 174.394 242.148C174.637 242.148 174.881 242.148 175.124 242.39C175.368 244.374 175.124 246.601 175.611 248.868C176.098 248.382 176.342 248.139 176.342 247.855L176.423 247.815Z" fill="#C2E538"/>
</g>
<defs>
<clipPath id="clip0_54_2">
<rect width="1009" height="327" fill="white"/>
</clipPath>
</defs>
</svg>
